<svg id="svg" version="1.1" xmlns="http://www.w3.org/2000/svg" width="400" height="400" viewBox="0, 0, 400,400">
    <g id="svgg">
        <path id="path0"
              d="M142.800 35.871 C 142.030 35.973,141.229 36.224,141.020 36.429 C 140.811 36.633,140.362 36.800,140.023 36.800 C 139.183 36.800,132.177 40.304,131.581 41.023 C 131.318 41.340,130.916 41.600,130.688 41.600 C 130.128 41.600,122.820 48.882,122.809 49.451 C 122.804 49.699,122.532 50.124,122.205 50.396 C 121.387 51.075,118.400 57.297,118.400 58.322 C 118.400 58.779,118.220 59.264,118.000 59.400 C 117.780 59.536,117.600 60.256,117.600 61.000 C 117.600 61.744,117.420 62.464,117.200 62.600 C 116.959 62.749,116.800 65.530,116.800 69.600 C 116.800 73.670,116.959 76.451,117.200 76.600 C 117.420 76.736,117.600 77.636,117.600 78.600 C 117.600 79.564,117.780 80.464,118.000 80.600 C 118.220 80.736,118.400 81.265,118.400 81.775 C 118.400 82.285,118.670 82.926,119.000 83.200 C 119.330 83.474,119.600 84.126,119.600 84.649 C 119.600 85.172,119.780 85.600,120.000 85.600 C 120.220 85.600,120.400 85.920,120.400 86.312 C 120.400 86.703,120.760 87.283,121.200 87.600 C 121.640 87.917,122.000 88.457,122.000 88.800 C 122.000 89.143,122.360 89.683,122.800 90.000 C 123.240 90.317,123.600 90.897,123.600 91.288 C 123.600 91.733,123.900 92.000,124.400 92.000 C 124.855 92.000,125.200 92.267,125.200 92.618 C 125.200 93.418,126.982 95.200,127.782 95.200 C 128.133 95.200,128.400 95.545,128.400 96.000 C 128.400 96.500,128.667 96.800,129.112 96.800 C 129.503 96.800,130.083 97.160,130.400 97.600 C 130.717 98.040,131.220 98.400,131.517 98.400 C 133.261 98.400,133.200 96.321,133.200 155.890 L 133.200 212.238 131.700 213.670 C 130.875 214.458,129.984 215.170,129.721 215.252 C 128.946 215.491,122.800 221.607,122.800 222.138 C 122.800 222.405,122.440 222.883,122.000 223.200 C 121.560 223.517,121.200 224.097,121.200 224.488 C 121.200 224.880,121.020 225.200,120.800 225.200 C 120.580 225.200,120.400 225.560,120.400 226.000 C 120.400 226.440,120.220 226.800,120.000 226.800 C 119.780 226.800,119.600 227.160,119.600 227.600 C 119.600 228.040,119.431 228.400,119.225 228.400 C 119.018 228.400,118.727 229.212,118.578 230.205 C 118.429 231.198,118.148 232.108,117.954 232.229 C 117.759 232.349,117.600 232.966,117.600 233.600 C 117.600 234.234,117.420 234.864,117.200 235.000 C 116.958 235.149,116.800 237.996,116.800 242.200 C 116.800 246.404,116.958 249.251,117.200 249.400 C 117.420 249.536,117.600 250.346,117.600 251.200 C 117.600 252.054,117.759 252.851,117.954 252.971 C 118.148 253.092,118.429 254.002,118.578 254.995 C 118.727 255.988,119.018 256.800,119.225 256.800 C 119.431 256.800,119.600 257.160,119.600 257.600 C 119.600 258.040,119.780 258.400,120.000 258.400 C 120.220 258.400,120.400 258.720,120.400 259.112 C 120.400 259.503,120.760 260.083,121.200 260.400 C 121.640 260.717,122.000 261.257,122.000 261.600 C 122.000 261.943,122.360 262.483,122.800 262.800 C 123.240 263.117,123.600 263.579,123.600 263.827 C 123.600 264.398,128.970 269.696,129.902 270.045 C 130.286 270.188,130.944 270.688,131.365 271.156 C 132.280 272.173,134.237 273.200,135.261 273.200 C 135.668 273.200,136.000 273.380,136.000 273.600 C 136.000 273.820,136.320 274.000,136.712 274.000 C 137.103 274.000,137.683 274.360,138.000 274.800 C 138.402 275.357,139.035 275.600,140.088 275.600 C 140.920 275.600,141.600 275.780,141.600 276.000 C 141.600 276.220,142.500 276.400,143.600 276.400 C 144.700 276.400,145.600 276.580,145.600 276.800 C 145.600 277.048,147.733 277.200,151.200 277.200 C 154.667 277.200,156.800 277.048,156.800 276.800 C 156.800 276.580,157.700 276.400,158.800 276.400 C 159.900 276.400,160.800 276.220,160.800 276.000 C 160.800 275.780,161.480 275.600,162.312 275.600 C 163.365 275.600,163.998 275.357,164.400 274.800 C 164.717 274.360,165.297 274.000,165.688 274.000 C 166.080 274.000,166.400 273.820,166.400 273.600 C 166.400 273.380,166.732 273.200,167.139 273.200 C 168.163 273.200,170.120 272.173,171.035 271.156 C 171.456 270.688,172.114 270.188,172.498 270.045 C 173.470 269.681,178.800 264.386,178.800 263.784 C 178.800 263.512,179.338 262.865,179.996 262.345 C 180.654 261.825,181.194 261.085,181.196 260.700 C 181.198 260.315,181.380 260.000,181.600 260.000 C 181.820 260.000,182.000 259.640,182.000 259.200 C 182.000 258.760,182.180 258.400,182.400 258.400 C 182.620 258.400,182.801 258.085,182.802 257.700 C 182.804 257.315,183.074 256.484,183.402 255.854 C 183.731 255.224,184.000 254.200,184.000 253.578 C 184.000 252.956,184.180 252.336,184.400 252.200 C 184.620 252.064,184.800 251.254,184.800 250.400 C 184.800 249.546,184.980 248.736,185.200 248.600 C 185.420 248.464,185.600 247.744,185.600 247.000 C 185.600 246.256,185.780 245.536,186.000 245.400 C 186.220 245.264,186.400 244.004,186.400 242.600 C 186.400 241.196,186.220 239.936,186.000 239.800 C 185.780 239.664,185.600 238.764,185.600 237.800 C 185.600 236.836,185.420 235.936,185.200 235.800 C 184.980 235.664,184.800 234.854,184.800 234.000 C 184.800 233.146,184.620 232.336,184.400 232.200 C 184.180 232.064,184.000 231.524,184.000 231.000 C 184.000 230.476,183.820 229.936,183.600 229.800 C 183.380 229.664,183.200 229.126,183.200 228.605 C 183.200 228.084,182.930 227.387,182.600 227.057 C 182.270 226.727,182.000 226.174,182.000 225.829 C 182.000 225.483,181.820 225.200,181.600 225.200 C 181.380 225.200,181.200 224.880,181.200 224.488 C 181.200 224.097,180.840 223.517,180.400 223.200 C 179.960 222.883,179.600 222.447,179.600 222.231 C 179.600 222.015,179.057 221.278,178.394 220.593 C 177.088 219.247,177.485 217.089,179.144 216.513 C 179.505 216.388,180.448 215.671,181.239 214.921 C 183.012 213.240,189.361 210.000,190.882 210.000 C 191.497 210.000,192.000 209.820,192.000 209.600 C 192.000 209.380,192.540 209.200,193.200 209.200 C 193.860 209.200,194.400 209.020,194.400 208.800 C 194.400 208.552,196.592 208.400,200.176 208.400 C 203.596 208.400,206.054 208.237,206.200 208.000 C 206.336 207.780,207.967 207.600,209.824 207.600 C 211.808 207.600,213.200 207.435,213.200 207.200 C 213.200 206.980,213.999 206.800,214.976 206.800 C 215.953 206.800,216.864 206.620,217.000 206.400 C 217.136 206.180,217.676 206.000,218.200 206.000 C 218.724 206.000,219.264 205.820,219.400 205.600 C 219.536 205.380,220.076 205.200,220.600 205.200 C 221.124 205.200,221.664 205.020,221.800 204.800 C 221.936 204.580,222.476 204.400,223.000 204.400 C 223.524 204.400,224.064 204.220,224.200 204.000 C 224.336 203.780,224.859 203.600,225.362 203.600 C 225.865 203.600,226.602 203.240,227.000 202.800 C 227.398 202.360,228.101 201.984,228.562 201.964 C 229.023 201.944,230.300 201.415,231.400 200.790 C 232.500 200.164,234.030 199.334,234.800 198.946 C 235.570 198.558,236.491 197.917,236.847 197.520 C 237.203 197.124,237.748 196.800,238.059 196.800 C 238.369 196.800,238.883 196.440,239.200 196.000 C 239.517 195.560,240.025 195.200,240.328 195.200 C 240.631 195.200,241.383 194.660,242.000 194.000 C 242.617 193.340,243.330 192.800,243.586 192.800 C 243.842 192.800,244.929 191.900,246.000 190.800 C 247.071 189.700,248.154 188.800,248.405 188.800 C 248.955 188.800,251.974 185.578,251.989 184.974 C 251.995 184.740,253.074 183.570,254.386 182.374 C 255.698 181.179,256.778 179.957,256.786 179.660 C 256.794 179.364,257.340 178.617,258.000 178.000 C 258.660 177.383,259.200 176.663,259.200 176.400 C 259.200 176.137,259.740 175.417,260.400 174.800 C 261.060 174.183,261.600 173.391,261.600 173.040 C 261.600 172.688,261.780 172.400,262.000 172.400 C 262.220 172.400,262.400 172.106,262.400 171.747 C 262.400 171.388,262.723 170.803,263.118 170.447 C 263.513 170.091,264.516 168.360,265.346 166.600 C 266.177 164.840,267.024 163.087,267.228 162.705 C 267.433 162.323,267.600 161.659,267.600 161.229 C 267.600 160.799,267.780 160.336,268.000 160.200 C 268.220 160.064,268.400 159.609,268.400 159.189 C 268.400 158.768,268.760 157.783,269.200 157.000 C 269.640 156.217,270.000 155.052,270.000 154.411 C 270.000 153.771,270.180 153.136,270.400 153.000 C 270.620 152.864,270.800 151.953,270.800 150.976 C 270.800 149.999,270.980 149.200,271.200 149.200 C 271.422 149.200,271.600 148.133,271.600 146.800 C 271.600 145.480,271.775 144.400,271.989 144.400 C 272.216 144.400,272.424 142.122,272.489 138.914 L 272.600 133.429 274.000 133.033 C 274.770 132.815,276.030 131.989,276.800 131.196 C 277.570 130.404,278.515 129.636,278.900 129.490 C 279.285 129.344,279.600 129.025,279.600 128.781 C 279.600 128.537,280.320 127.646,281.200 126.800 C 282.080 125.954,282.800 125.007,282.800 124.693 C 282.800 124.380,283.157 123.801,283.593 123.407 C 284.029 123.012,285.058 121.319,285.879 119.645 C 286.701 117.970,287.514 116.540,287.686 116.467 C 287.859 116.393,288.000 115.628,288.000 114.767 C 288.000 113.905,288.180 113.200,288.400 113.200 C 288.620 113.200,288.800 112.401,288.800 111.424 C 288.800 110.447,288.980 109.536,289.200 109.400 C 289.430 109.258,289.600 107.137,289.600 104.400 C 289.600 101.663,289.430 99.542,289.200 99.400 C 288.980 99.264,288.800 98.184,288.800 97.000 C 288.800 95.816,288.620 94.736,288.400 94.600 C 288.180 94.464,288.000 94.020,288.000 93.614 C 288.000 92.816,286.391 89.485,285.900 89.267 C 285.735 89.193,285.600 88.726,285.600 88.228 C 285.600 87.076,284.640 85.141,283.603 84.203 C 283.161 83.803,282.800 83.321,282.800 83.132 C 282.800 82.578,276.062 76.000,275.494 76.000 C 275.209 76.000,274.717 75.640,274.400 75.200 C 274.083 74.760,273.543 74.400,273.200 74.400 C 272.857 74.400,272.317 74.040,272.000 73.600 C 271.661 73.130,270.965 72.800,270.312 72.800 C 269.700 72.800,269.199 72.665,269.197 72.500 C 269.193 72.099,267.219 71.200,266.344 71.200 C 265.961 71.200,265.536 71.020,265.400 70.800 C 265.264 70.580,264.724 70.400,264.200 70.400 C 263.676 70.400,263.136 70.220,263.000 70.000 C 262.864 69.780,261.593 69.600,260.176 69.600 C 258.725 69.600,257.600 69.425,257.600 69.200 C 257.600 68.679,255.322 68.679,255.000 69.200 C 254.864 69.420,253.233 69.600,251.376 69.600 C 249.392 69.600,248.000 69.765,248.000 70.000 C 248.000 70.220,247.460 70.400,246.800 70.400 C 246.140 70.400,245.600 70.580,245.600 70.800 C 245.600 71.020,245.060 71.200,244.400 71.200 C 243.740 71.200,243.200 71.380,243.200 71.600 C 243.200 71.820,242.660 72.000,242.000 72.000 C 241.340 72.000,240.800 72.180,240.800 72.400 C 240.800 72.620,240.300 72.800,239.688 72.800 C 239.035 72.800,238.339 73.130,238.000 73.600 C 237.683 74.040,237.221 74.400,236.974 74.400 C 236.726 74.400,236.198 74.760,235.800 75.200 C 235.402 75.640,234.868 76.000,234.613 76.000 C 234.358 76.000,233.632 76.540,233.000 77.200 C 232.368 77.860,231.614 78.400,231.325 78.400 C 231.036 78.400,230.800 78.632,230.800 78.915 C 230.800 79.198,229.900 80.317,228.800 81.400 C 227.700 82.483,226.800 83.568,226.800 83.810 C 226.800 84.052,226.260 84.768,225.600 85.400 C 224.940 86.032,224.400 86.966,224.400 87.475 C 224.400 87.984,224.220 88.400,224.000 88.400 C 223.780 88.400,223.600 88.720,223.600 89.112 C 223.600 89.503,223.240 90.083,222.800 90.400 C 222.330 90.739,222.000 91.435,222.000 92.088 C 222.000 92.700,221.820 93.200,221.600 93.200 C 221.380 93.200,221.200 93.920,221.200 94.800 C 221.200 95.680,221.020 96.400,220.800 96.400 C 220.580 96.400,220.400 97.199,220.400 98.176 C 220.400 99.153,220.220 100.064,220.000 100.200 C 219.773 100.340,219.600 102.337,219.600 104.824 C 219.600 107.475,219.758 109.200,220.000 109.200 C 220.220 109.200,220.400 109.819,220.400 110.576 C 220.400 111.333,220.580 112.064,220.800 112.200 C 221.020 112.336,221.200 113.056,221.200 113.800 C 221.200 114.544,221.380 115.264,221.600 115.400 C 221.820 115.536,222.000 116.065,222.000 116.575 C 222.000 117.085,222.266 117.723,222.591 117.992 C 222.916 118.262,223.672 119.499,224.272 120.741 C 224.872 121.984,225.686 123.291,226.081 123.647 C 226.477 124.003,226.800 124.494,226.800 124.738 C 226.800 125.274,234.165 132.800,234.690 132.800 C 236.252 132.800,236.800 134.600,236.800 139.726 C 236.800 142.842,236.646 144.800,236.400 144.800 C 236.180 144.800,236.000 145.448,236.000 146.240 C 236.000 147.635,235.552 148.933,233.963 152.138 C 233.543 152.984,233.200 153.889,233.200 154.149 C 233.200 154.410,232.840 154.883,232.400 155.200 C 231.960 155.517,231.600 155.992,231.600 156.254 C 231.600 156.517,231.060 157.242,230.400 157.865 C 229.740 158.488,229.200 159.208,229.200 159.465 C 229.200 159.957,224.259 164.885,223.491 165.159 C 223.246 165.247,222.623 165.740,222.108 166.256 C 221.592 166.772,220.345 167.600,219.337 168.097 C 216.326 169.581,216.000 169.776,216.000 170.095 C 216.000 170.263,215.640 170.400,215.200 170.400 C 214.760 170.400,214.400 170.580,214.400 170.800 C 214.400 171.020,213.680 171.200,212.800 171.200 C 211.920 171.200,211.200 171.380,211.200 171.600 C 211.200 171.820,210.840 172.000,210.400 172.000 C 209.960 172.000,209.600 172.180,209.600 172.400 C 209.600 172.643,207.808 172.800,205.024 172.800 C 202.404 172.800,200.342 172.971,200.200 173.200 C 200.055 173.435,197.729 173.600,194.576 173.600 C 191.259 173.600,189.200 173.753,189.200 174.000 C 189.200 174.220,188.401 174.400,187.424 174.400 C 186.447 174.400,185.536 174.580,185.400 174.800 C 185.264 175.020,184.724 175.200,184.200 175.200 C 183.676 175.200,183.136 175.380,183.000 175.600 C 182.864 175.820,182.144 176.000,181.400 176.000 C 180.656 176.000,179.936 176.180,179.800 176.400 C 179.664 176.620,178.933 176.800,178.176 176.800 C 177.419 176.800,176.800 176.980,176.800 177.200 C 176.800 177.420,176.440 177.600,176.000 177.600 C 175.560 177.600,175.200 177.780,175.200 178.000 C 175.200 178.220,174.840 178.400,174.400 178.400 C 173.960 178.400,173.600 178.580,173.600 178.800 C 173.600 179.020,173.060 179.200,172.400 179.200 C 171.740 179.200,171.200 179.380,171.200 179.600 C 171.200 179.820,170.855 180.000,170.433 180.000 C 170.012 180.000,169.596 180.212,169.510 180.471 C 168.528 183.416,168.400 178.805,168.400 140.476 L 168.401 100.600 169.347 99.500 C 169.867 98.895,170.547 98.400,170.858 98.400 C 171.169 98.400,171.683 98.040,172.000 97.600 C 172.317 97.160,172.811 96.800,173.097 96.800 C 173.732 96.800,178.000 92.595,178.000 91.969 C 178.000 91.723,178.540 91.017,179.200 90.400 C 179.860 89.783,180.400 88.991,180.400 88.640 C 180.400 88.288,180.580 88.000,180.800 88.000 C 181.020 88.000,181.200 87.680,181.200 87.288 C 181.200 86.897,181.553 86.322,181.985 86.011 C 182.417 85.699,182.881 84.942,183.016 84.327 C 183.151 83.712,183.428 83.106,183.631 82.981 C 183.834 82.855,184.000 82.144,184.000 81.400 C 184.000 80.656,184.180 79.936,184.400 79.800 C 184.620 79.664,184.800 78.764,184.800 77.800 C 184.800 76.836,184.980 75.936,185.200 75.800 C 185.420 75.664,185.600 74.944,185.600 74.200 C 185.600 73.456,185.780 72.736,186.000 72.600 C 186.220 72.464,186.400 71.294,186.400 70.000 C 186.400 68.706,186.220 67.536,186.000 67.400 C 185.780 67.264,185.600 66.364,185.600 65.400 C 185.600 64.436,185.420 63.536,185.200 63.400 C 184.980 63.264,184.800 62.544,184.800 61.800 C 184.800 61.056,184.620 60.336,184.400 60.200 C 184.180 60.064,184.000 59.421,184.000 58.771 C 184.000 58.121,183.829 57.277,183.620 56.895 C 183.412 56.513,182.702 55.026,182.044 53.592 C 181.385 52.157,180.386 50.551,179.823 50.022 C 179.260 49.493,178.800 48.906,178.800 48.717 C 178.800 48.095,172.147 41.600,171.509 41.600 C 171.166 41.600,170.791 41.354,170.676 41.054 C 170.441 40.442,163.336 36.800,162.377 36.800 C 162.038 36.800,161.538 36.578,161.266 36.306 C 160.767 35.807,145.914 35.456,142.800 35.871 M154.800 53.200 C 154.800 53.420,155.113 53.600,155.496 53.600 C 156.547 53.600,162.000 56.400,162.000 56.940 C 162.000 57.199,162.402 57.588,162.893 57.805 C 163.384 58.022,163.985 58.604,164.228 59.097 C 164.472 59.591,164.970 60.325,165.336 60.729 C 165.701 61.133,166.000 61.674,166.000 61.931 C 166.000 62.189,166.180 62.400,166.400 62.400 C 166.620 62.400,166.800 62.749,166.800 63.176 C 166.800 63.603,166.980 64.064,167.200 64.200 C 167.420 64.336,167.600 64.876,167.600 65.400 C 167.600 65.924,167.780 66.464,168.000 66.600 C 168.220 66.736,168.400 68.266,168.400 70.000 C 168.400 71.734,168.220 73.264,168.000 73.400 C 167.780 73.536,167.600 73.966,167.600 74.356 C 167.600 77.822,159.485 86.000,156.046 86.000 C 155.606 86.000,155.136 86.180,155.000 86.400 C 154.864 86.620,153.154 86.800,151.200 86.800 C 149.246 86.800,147.536 86.620,147.400 86.400 C 147.264 86.180,146.794 86.000,146.354 86.000 C 145.385 86.000,142.151 84.568,141.785 83.976 C 141.641 83.742,141.090 83.386,140.561 83.185 C 140.033 82.984,139.600 82.581,139.600 82.288 C 139.600 81.996,138.961 81.138,138.181 80.382 C 136.744 78.989,135.600 77.113,135.600 76.151 C 135.600 75.861,135.240 74.983,134.800 74.200 C 133.927 72.646,133.634 67.074,134.400 66.600 C 134.620 66.464,134.800 65.924,134.800 65.400 C 134.800 64.876,134.980 64.336,135.200 64.200 C 135.420 64.064,135.600 63.603,135.600 63.176 C 135.600 62.749,135.746 62.400,135.925 62.400 C 136.104 62.400,136.495 61.778,136.793 61.019 C 137.447 59.351,140.506 56.316,142.300 55.556 C 143.015 55.253,143.600 54.869,143.600 54.702 C 143.600 54.536,143.949 54.400,144.376 54.400 C 144.803 54.400,145.264 54.220,145.400 54.000 C 145.536 53.780,146.087 53.600,146.624 53.600 C 147.161 53.600,147.600 53.420,147.600 53.200 C 147.600 52.963,149.067 52.800,151.200 52.800 C 153.333 52.800,154.800 52.963,154.800 53.200 M256.400 87.600 C 256.400 87.820,257.199 88.000,258.176 88.000 C 259.153 88.000,260.064 88.180,260.200 88.400 C 260.336 88.620,260.859 88.800,261.362 88.800 C 261.865 88.800,262.602 89.160,263.000 89.600 C 263.398 90.040,263.928 90.400,264.177 90.400 C 265.888 90.400,271.200 98.324,271.200 100.877 C 271.200 101.495,271.380 102.000,271.600 102.000 C 271.826 102.000,272.000 103.133,272.000 104.600 C 272.000 106.067,271.826 107.200,271.600 107.200 C 271.380 107.200,271.200 107.880,271.200 108.712 C 271.200 109.765,270.957 110.398,270.400 110.800 C 269.960 111.117,269.600 111.807,269.600 112.333 C 269.600 113.498,264.622 118.800,263.528 118.800 C 263.128 118.800,262.800 118.980,262.800 119.200 C 262.800 119.420,262.440 119.600,262.000 119.600 C 261.560 119.600,261.200 119.780,261.200 120.000 C 261.200 120.220,260.581 120.400,259.824 120.400 C 259.067 120.400,258.336 120.580,258.200 120.800 C 258.064 121.020,256.534 121.200,254.800 121.200 C 253.066 121.200,251.536 121.020,251.400 120.800 C 251.264 120.580,250.659 120.400,250.055 120.400 C 246.899 120.400,241.711 116.022,239.381 111.392 C 237.963 108.572,237.224 100.000,238.400 100.000 C 238.620 100.000,238.800 99.500,238.800 98.888 C 238.800 98.235,239.130 97.539,239.600 97.200 C 240.040 96.883,240.400 96.303,240.400 95.912 C 240.400 95.520,240.580 95.200,240.800 95.200 C 241.020 95.200,241.200 94.924,241.200 94.587 C 241.200 93.838,243.769 91.200,244.498 91.200 C 244.787 91.200,245.283 90.840,245.600 90.400 C 245.917 89.960,246.497 89.600,246.888 89.600 C 247.280 89.600,247.600 89.420,247.600 89.200 C 247.600 88.980,247.960 88.800,248.400 88.800 C 248.840 88.800,249.200 88.620,249.200 88.400 C 249.200 88.180,249.999 88.000,250.976 88.000 C 251.953 88.000,252.864 87.820,253.000 87.600 C 253.136 87.380,253.957 87.200,254.824 87.200 C 255.691 87.200,256.400 87.380,256.400 87.600 M154.800 226.000 C 154.800 226.220,155.340 226.400,156.000 226.400 C 156.660 226.400,157.200 226.580,157.200 226.800 C 157.200 227.020,157.560 227.200,158.000 227.200 C 158.440 227.200,158.800 227.380,158.800 227.600 C 158.800 227.820,159.084 228.000,159.431 228.000 C 159.779 228.000,160.754 228.720,161.600 229.600 C 162.446 230.480,163.421 231.200,163.769 231.200 C 164.121 231.200,164.400 231.534,164.400 231.957 C 164.400 232.374,164.647 232.809,164.948 232.925 C 165.721 233.221,167.600 237.139,167.600 238.455 C 167.600 239.059,167.780 239.664,168.000 239.800 C 168.220 239.936,168.400 241.376,168.400 243.000 C 168.400 244.624,168.220 246.064,168.000 246.200 C 167.780 246.336,167.600 246.761,167.600 247.145 C 167.600 248.150,165.596 252.027,164.948 252.275 C 164.647 252.391,164.400 252.826,164.400 253.243 C 164.400 253.733,164.118 254.000,163.600 254.000 C 163.139 254.000,162.800 254.267,162.800 254.629 C 162.800 255.437,161.837 256.400,161.029 256.400 C 160.683 256.400,160.400 256.580,160.400 256.800 C 160.400 257.020,160.040 257.200,159.600 257.200 C 159.160 257.200,158.800 257.380,158.800 257.600 C 158.800 257.820,158.440 258.000,158.000 258.000 C 157.560 258.000,157.200 258.180,157.200 258.400 C 157.200 258.620,156.660 258.800,156.000 258.800 C 155.340 258.800,154.800 258.980,154.800 259.200 C 154.800 259.440,153.200 259.600,150.800 259.600 C 148.400 259.600,146.800 259.440,146.800 259.200 C 146.800 258.980,146.440 258.800,146.000 258.800 C 145.560 258.800,145.200 258.620,145.200 258.400 C 145.200 258.180,144.840 258.000,144.400 258.000 C 143.960 258.000,143.600 257.820,143.600 257.600 C 143.600 257.380,143.240 257.200,142.800 257.200 C 142.360 257.200,142.000 257.020,142.000 256.800 C 142.000 256.580,141.722 256.400,141.382 256.400 C 140.582 256.400,138.800 254.618,138.800 253.818 C 138.800 253.478,138.485 253.195,138.100 253.190 C 137.375 253.179,134.800 248.439,134.800 247.116 C 134.800 246.748,134.620 246.336,134.400 246.200 C 133.627 245.722,133.925 239.758,134.800 238.200 C 135.240 237.417,135.600 236.532,135.600 236.234 C 135.600 235.269,136.688 233.559,138.161 232.210 C 138.953 231.485,139.600 230.601,139.600 230.246 C 139.600 229.891,139.920 229.600,140.312 229.600 C 140.703 229.600,141.283 229.240,141.600 228.800 C 141.917 228.360,142.497 228.000,142.888 228.000 C 143.280 228.000,143.600 227.820,143.600 227.600 C 143.600 227.380,143.960 227.200,144.400 227.200 C 144.840 227.200,145.200 227.020,145.200 226.800 C 145.200 226.580,145.740 226.400,146.400 226.400 C 147.060 226.400,147.600 226.220,147.600 226.000 C 147.600 225.763,149.067 225.600,151.200 225.600 C 153.333 225.600,154.800 225.763,154.800 226.000 "
              stroke="none" fill="#fcfcfc" fill-rule="evenodd"></path>
        <path id="path1"
              d="M94.800 12.400 C 94.800 12.620,94.361 12.800,93.824 12.800 C 93.287 12.800,92.736 12.980,92.600 13.200 C 92.464 13.420,91.913 13.600,91.376 13.600 C 90.839 13.600,90.400 13.780,90.400 14.000 C 90.400 14.220,90.040 14.400,89.600 14.400 C 89.160 14.400,88.800 14.580,88.800 14.800 C 88.800 15.020,88.440 15.200,88.000 15.200 C 87.560 15.200,87.200 15.380,87.200 15.600 C 87.200 15.820,86.880 16.000,86.488 16.000 C 86.097 16.000,85.517 16.360,85.200 16.800 C 84.883 17.240,84.390 17.600,84.104 17.600 C 83.376 17.600,78.400 22.653,78.400 23.393 C 78.400 23.727,78.220 24.000,78.000 24.000 C 77.780 24.000,77.600 24.248,77.600 24.551 C 77.600 24.854,77.334 25.323,77.008 25.593 C 76.106 26.342,75.273 28.239,74.976 30.223 C 74.828 31.206,74.548 32.108,74.354 32.229 C 74.159 32.349,74.000 33.056,74.000 33.800 C 74.000 34.544,73.820 35.264,73.600 35.400 C 73.334 35.564,73.200 94.804,73.200 211.824 L 73.200 388.000 74.200 388.000 C 74.750 388.000,75.200 387.820,75.200 387.600 C 75.200 387.380,75.482 387.200,75.826 387.200 C 76.170 387.200,77.329 386.300,78.400 385.200 C 79.471 384.100,80.554 383.200,80.805 383.200 C 81.057 383.200,81.954 382.480,82.800 381.600 C 83.646 380.720,84.535 380.000,84.776 380.000 C 85.017 380.000,86.385 378.830,87.815 377.400 C 89.245 375.970,90.603 374.800,90.833 374.800 C 91.064 374.800,92.129 373.900,93.200 372.800 C 94.271 371.700,95.348 370.800,95.592 370.800 C 96.140 370.800,98.000 368.981,98.000 368.445 C 98.000 368.230,98.360 367.940,98.800 367.800 C 99.240 367.660,99.600 367.378,99.600 367.173 C 99.600 366.968,99.882 366.800,100.226 366.800 C 100.570 366.800,101.729 365.900,102.800 364.800 C 103.871 363.700,104.954 362.800,105.205 362.800 C 105.457 362.800,106.370 362.035,107.235 361.100 C 110.004 358.106,113.183 355.200,113.690 355.200 C 113.889 355.200,114.929 354.300,116.000 353.200 C 117.071 352.100,118.230 351.200,118.574 351.200 C 118.918 351.200,119.200 351.020,119.200 350.800 C 119.200 350.580,119.480 350.400,119.822 350.400 C 120.164 350.400,121.510 349.275,122.814 347.900 C 127.203 343.269,128.095 342.400,128.465 342.400 C 128.911 342.400,129.507 341.919,131.813 339.700 C 132.784 338.765,133.814 338.000,134.101 338.000 C 134.388 338.000,134.883 337.640,135.200 337.200 C 135.517 336.760,136.021 336.400,136.320 336.400 C 136.618 336.400,137.554 335.680,138.400 334.800 C 139.246 333.920,140.226 333.200,140.579 333.200 C 140.971 333.200,141.313 332.735,141.460 332.000 C 141.592 331.340,141.956 330.800,142.269 330.800 C 142.582 330.800,144.081 329.540,145.600 328.000 C 147.119 326.460,148.634 325.200,148.967 325.200 C 149.301 325.200,150.203 324.570,150.973 323.800 C 151.743 323.030,152.577 322.400,152.826 322.400 C 153.075 322.400,153.783 321.860,154.400 321.200 C 155.017 320.540,155.722 320.000,155.967 320.000 C 156.212 320.000,156.905 319.441,157.506 318.759 C 159.711 316.256,163.281 312.800,163.661 312.800 C 163.876 312.800,164.929 311.900,166.000 310.800 C 167.071 309.700,168.198 308.800,168.504 308.800 C 168.810 308.800,169.483 308.350,170.000 307.800 C 170.517 307.250,171.153 306.800,171.415 306.800 C 171.676 306.800,173.072 305.540,174.517 304.000 C 175.962 302.460,177.346 301.200,177.594 301.200 C 177.842 301.200,179.104 300.120,180.400 298.800 C 181.696 297.480,182.957 296.400,183.204 296.400 C 183.450 296.400,184.529 295.500,185.600 294.400 C 186.671 293.300,187.752 292.400,188.001 292.400 C 188.250 292.400,189.116 291.772,189.927 291.003 C 190.737 290.235,191.549 289.605,191.731 289.603 C 191.914 289.602,192.754 288.880,193.600 288.000 C 194.446 287.120,195.382 286.400,195.680 286.400 C 195.979 286.400,196.483 286.040,196.800 285.600 C 197.437 284.717,204.400 284.350,204.400 285.200 C 204.400 285.420,204.760 285.600,205.200 285.600 C 205.640 285.600,206.000 285.780,206.000 286.000 C 206.000 286.220,206.273 286.400,206.607 286.400 C 206.941 286.400,208.315 287.570,209.660 289.000 C 211.005 290.430,212.366 291.600,212.684 291.600 C 213.002 291.600,213.954 292.320,214.800 293.200 C 215.646 294.080,216.546 294.800,216.800 294.800 C 217.054 294.800,217.954 295.520,218.800 296.400 C 219.646 297.280,220.513 298.000,220.728 298.000 C 221.113 298.000,223.957 300.734,226.094 303.159 C 226.695 303.842,227.370 304.400,227.593 304.400 C 227.816 304.400,228.741 305.120,229.648 306.000 C 230.555 306.880,231.507 307.600,231.765 307.600 C 232.023 307.600,232.901 308.230,233.718 309.000 C 234.534 309.770,235.390 310.400,235.620 310.400 C 235.850 310.400,237.281 311.660,238.800 313.200 C 240.319 314.740,241.669 316.000,241.800 316.000 C 241.931 316.000,243.281 317.260,244.800 318.800 C 246.319 320.340,247.768 321.600,248.020 321.600 C 248.273 321.600,248.983 322.140,249.600 322.800 C 250.217 323.460,250.926 324.000,251.177 324.000 C 251.674 324.000,252.175 324.373,254.125 326.200 C 254.829 326.860,255.871 327.640,256.438 327.933 C 257.006 328.226,257.725 328.836,258.036 329.288 C 259.202 330.987,263.986 335.600,264.581 335.600 C 264.921 335.600,265.200 335.780,265.200 336.000 C 265.200 336.220,265.482 336.400,265.826 336.400 C 266.170 336.400,267.329 337.300,268.400 338.400 C 269.471 339.500,270.547 340.400,270.791 340.400 C 271.505 340.400,273.628 342.357,276.800 345.941 C 277.790 347.059,278.839 347.980,279.131 347.987 C 279.424 347.994,280.354 348.720,281.200 349.600 C 282.046 350.480,282.946 351.200,283.200 351.200 C 283.454 351.200,284.354 351.920,285.200 352.800 C 286.046 353.680,286.939 354.400,287.185 354.400 C 287.431 354.400,288.974 355.750,290.613 357.400 C 292.252 359.050,293.785 360.400,294.019 360.400 C 294.253 360.400,295.504 361.480,296.800 362.800 C 298.096 364.120,299.357 365.200,299.604 365.200 C 299.850 365.200,300.929 366.100,302.000 367.200 C 303.071 368.300,304.154 369.200,304.405 369.200 C 304.657 369.200,305.554 369.920,306.400 370.800 C 307.246 371.680,308.086 372.402,308.269 372.404 C 308.451 372.406,309.818 373.576,311.306 375.004 C 312.794 376.432,314.201 377.600,314.432 377.600 C 314.663 377.600,315.729 378.500,316.800 379.600 C 317.871 380.700,318.954 381.600,319.205 381.600 C 319.457 381.600,320.354 382.320,321.200 383.200 C 322.046 384.080,322.952 384.800,323.214 384.800 C 323.477 384.800,324.322 385.520,325.094 386.400 C 326.211 387.674,326.771 388.000,327.848 388.000 L 329.200 388.000 329.200 213.000 C 329.200 96.600,329.066 38.000,328.800 38.000 C 328.578 38.000,328.400 36.933,328.400 35.600 C 328.400 34.267,328.222 33.200,328.000 33.200 C 327.780 33.200,327.600 32.660,327.600 32.000 C 327.600 31.340,327.420 30.800,327.200 30.800 C 326.980 30.800,326.800 30.440,326.800 30.000 C 326.800 29.560,326.620 29.200,326.400 29.200 C 326.180 29.200,326.000 28.660,326.000 28.000 C 326.000 27.340,325.823 26.800,325.608 26.800 C 325.392 26.800,325.102 26.350,324.964 25.800 C 324.826 25.250,324.553 24.800,324.357 24.800 C 324.160 24.800,324.000 24.512,324.000 24.160 C 324.000 23.809,323.460 23.017,322.800 22.400 C 322.140 21.783,321.600 21.068,321.600 20.811 C 321.600 20.207,320.593 19.200,319.989 19.200 C 319.732 19.200,319.017 18.660,318.400 18.000 C 317.783 17.340,316.991 16.800,316.640 16.800 C 316.288 16.800,316.000 16.620,316.000 16.400 C 316.000 16.180,315.640 16.000,315.200 16.000 C 314.760 16.000,314.400 15.820,314.400 15.600 C 314.400 15.380,314.040 15.200,313.600 15.200 C 313.160 15.200,312.800 15.020,312.800 14.800 C 312.800 14.580,312.440 14.400,312.000 14.400 C 311.560 14.400,311.200 14.220,311.200 14.000 C 311.200 13.780,310.840 13.600,310.400 13.600 C 309.960 13.600,309.600 13.420,309.600 13.200 C 309.600 12.980,308.970 12.800,308.200 12.800 C 307.430 12.800,306.800 12.620,306.800 12.400 C 306.800 12.134,271.200 12.000,200.800 12.000 C 130.400 12.000,94.800 12.134,94.800 12.400 M158.600 35.200 C 158.736 35.420,159.456 35.600,160.200 35.600 C 160.944 35.600,161.664 35.780,161.800 36.000 C 161.936 36.220,162.371 36.400,162.767 36.400 C 163.552 36.400,168.517 38.813,168.733 39.300 C 168.807 39.465,169.210 39.600,169.630 39.600 C 170.050 39.600,170.618 39.960,170.893 40.400 C 171.168 40.840,171.622 41.200,171.902 41.200 C 172.536 41.200,179.200 47.818,179.200 48.448 C 179.200 48.700,179.657 49.299,180.215 49.779 C 181.505 50.888,184.800 57.412,184.800 58.859 C 184.800 59.460,184.980 60.064,185.200 60.200 C 185.420 60.336,185.600 61.031,185.600 61.744 C 185.600 62.457,185.762 63.211,185.959 63.420 C 186.714 64.219,187.456 71.904,186.838 72.522 C 186.597 72.763,186.400 73.543,186.400 74.256 C 186.400 74.969,186.220 75.664,186.000 75.800 C 185.780 75.936,185.600 76.836,185.600 77.800 C 185.600 78.764,185.420 79.664,185.200 79.800 C 184.980 79.936,184.800 80.560,184.800 81.186 C 184.800 82.456,183.376 85.452,182.300 86.447 C 181.915 86.803,181.600 87.388,181.600 87.747 C 181.600 88.106,181.420 88.400,181.200 88.400 C 180.980 88.400,180.800 88.688,180.800 89.040 C 180.800 89.391,180.260 90.183,179.600 90.800 C 178.940 91.417,178.400 92.123,178.400 92.369 C 178.400 92.995,174.132 97.200,173.497 97.200 C 173.211 97.200,172.717 97.560,172.400 98.000 C 172.083 98.440,171.569 98.800,171.259 98.800 C 170.948 98.800,170.358 99.188,169.947 99.661 C 168.732 101.062,168.785 179.600,170.000 179.600 C 170.440 179.600,170.800 179.420,170.800 179.200 C 170.800 178.980,171.340 178.800,172.000 178.800 C 172.660 178.800,173.200 178.620,173.200 178.400 C 173.200 178.180,173.560 178.000,174.000 178.000 C 174.440 178.000,174.800 177.820,174.800 177.600 C 174.800 177.380,175.160 177.200,175.600 177.200 C 176.040 177.200,176.400 177.020,176.400 176.800 C 176.400 176.580,177.120 176.400,178.000 176.400 C 178.880 176.400,179.600 176.220,179.600 176.000 C 179.600 175.780,180.219 175.600,180.976 175.600 C 181.733 175.600,182.464 175.420,182.600 175.200 C 182.736 174.980,183.276 174.800,183.800 174.800 C 184.324 174.800,184.864 174.620,185.000 174.400 C 185.136 174.180,186.036 174.000,187.000 174.000 C 187.964 174.000,188.864 173.820,189.000 173.600 C 189.144 173.367,191.396 173.200,194.400 173.200 C 197.404 173.200,199.656 173.033,199.800 172.800 C 199.942 172.571,202.004 172.400,204.624 172.400 C 207.408 172.400,209.200 172.243,209.200 172.000 C 209.200 171.780,209.560 171.600,210.000 171.600 C 210.440 171.600,210.800 171.420,210.800 171.200 C 210.800 170.980,211.520 170.800,212.400 170.800 C 213.280 170.800,214.000 170.620,214.000 170.400 C 214.000 170.180,214.360 170.000,214.800 170.000 C 215.240 170.000,215.600 169.820,215.600 169.600 C 215.600 169.380,215.848 169.200,216.151 169.200 C 216.454 169.200,216.934 168.921,217.216 168.580 C 217.499 168.239,218.556 167.585,219.565 167.125 C 220.574 166.666,221.766 165.865,222.213 165.345 C 222.660 164.825,223.235 164.400,223.490 164.400 C 224.099 164.400,228.800 159.781,228.800 159.183 C 228.800 158.929,229.340 158.217,230.000 157.600 C 230.660 156.983,231.200 156.191,231.200 155.840 C 231.200 155.488,231.348 155.200,231.530 155.200 C 231.950 155.200,234.000 150.787,234.000 149.882 C 234.000 149.507,234.135 149.199,234.300 149.197 C 234.817 149.191,235.600 147.099,235.600 145.720 C 235.600 144.994,235.780 144.400,236.000 144.400 C 236.244 144.400,236.400 142.575,236.400 139.726 C 236.400 135.023,235.811 133.200,234.290 133.200 C 233.730 133.200,226.400 125.655,226.400 125.079 C 226.400 124.803,226.040 124.317,225.600 124.000 C 225.160 123.683,224.800 123.103,224.800 122.712 C 224.800 122.320,224.654 122.000,224.475 122.000 C 224.296 122.000,223.901 121.366,223.597 120.591 C 223.293 119.817,222.719 118.889,222.322 118.529 C 221.925 118.170,221.600 117.465,221.600 116.962 C 221.600 116.459,221.420 115.936,221.200 115.800 C 220.980 115.664,220.800 114.944,220.800 114.200 C 220.800 113.456,220.620 112.736,220.400 112.600 C 220.180 112.464,220.000 111.744,220.000 111.000 C 220.000 110.256,219.820 109.536,219.600 109.400 C 219.371 109.258,219.200 107.196,219.200 104.576 C 219.200 101.792,219.357 100.000,219.600 100.000 C 219.820 100.000,220.000 99.100,220.000 98.000 C 220.000 96.900,220.180 96.000,220.400 96.000 C 220.620 96.000,220.800 95.280,220.800 94.400 C 220.800 93.520,220.980 92.800,221.200 92.800 C 221.420 92.800,221.600 92.372,221.600 91.849 C 221.600 91.326,221.866 90.677,222.192 90.407 C 222.942 89.784,224.000 87.682,224.000 86.813 C 224.000 86.448,224.540 85.632,225.200 85.000 C 225.860 84.368,226.400 83.652,226.400 83.410 C 226.400 83.168,227.300 82.083,228.400 81.000 C 229.500 79.917,230.400 78.798,230.400 78.515 C 230.400 78.232,230.636 78.000,230.925 78.000 C 231.214 78.000,231.968 77.460,232.600 76.800 C 233.232 76.140,233.958 75.600,234.213 75.600 C 234.468 75.600,235.002 75.240,235.400 74.800 C 235.798 74.360,236.338 74.000,236.600 74.000 C 236.862 74.000,237.402 73.640,237.800 73.200 C 238.198 72.760,238.935 72.400,239.438 72.400 C 239.941 72.400,240.464 72.220,240.600 72.000 C 240.736 71.780,241.287 71.600,241.824 71.600 C 242.361 71.600,242.800 71.420,242.800 71.200 C 242.800 70.980,243.340 70.800,244.000 70.800 C 244.660 70.800,245.200 70.620,245.200 70.400 C 245.200 70.180,245.740 70.000,246.400 70.000 C 247.060 70.000,247.600 69.820,247.600 69.600 C 247.600 69.365,248.992 69.200,250.976 69.200 C 252.833 69.200,254.464 69.020,254.600 68.800 C 254.921 68.280,257.479 68.280,257.800 68.800 C 257.936 69.020,259.196 69.200,260.600 69.200 C 262.004 69.200,263.264 69.380,263.400 69.600 C 263.536 69.820,264.076 70.000,264.600 70.000 C 265.124 70.000,265.664 70.180,265.800 70.400 C 265.936 70.620,266.361 70.800,266.744 70.800 C 267.619 70.800,269.593 71.699,269.597 72.100 C 269.599 72.265,270.100 72.400,270.712 72.400 C 271.365 72.400,272.061 72.730,272.400 73.200 C 272.717 73.640,273.257 74.000,273.600 74.000 C 273.943 74.000,274.483 74.360,274.800 74.800 C 275.117 75.240,275.609 75.600,275.894 75.600 C 276.426 75.600,283.200 82.160,283.200 82.675 C 283.200 82.833,283.718 83.510,284.352 84.181 C 285.382 85.272,286.919 88.666,287.484 91.100 C 287.599 91.595,287.852 92.000,288.047 92.000 C 288.241 92.000,288.400 92.439,288.400 92.976 C 288.400 93.513,288.580 94.064,288.800 94.200 C 289.020 94.336,289.200 95.416,289.200 96.600 C 289.200 97.784,289.380 98.864,289.600 99.000 C 289.833 99.144,290.000 101.404,290.000 104.424 C 290.000 107.608,289.846 109.600,289.600 109.600 C 289.380 109.600,289.200 110.500,289.200 111.600 C 289.200 112.700,289.020 113.600,288.800 113.600 C 288.580 113.600,288.400 114.320,288.400 115.200 C 288.400 116.080,288.220 116.800,288.000 116.800 C 287.780 116.800,287.600 117.054,287.600 117.366 C 287.600 118.300,285.231 122.631,284.180 123.619 C 283.641 124.125,283.200 124.742,283.200 124.989 C 283.200 125.236,282.480 126.141,281.600 127.000 C 280.720 127.859,280.000 128.801,280.000 129.094 C 280.000 129.386,279.685 129.735,279.300 129.869 C 278.915 130.004,277.880 130.784,277.000 131.603 C 276.120 132.422,274.815 133.340,274.100 133.644 L 272.800 134.195 272.800 139.498 C 272.800 142.766,272.647 144.800,272.400 144.800 C 272.178 144.800,272.000 145.867,272.000 147.200 C 272.000 148.520,271.845 149.600,271.655 149.600 C 271.466 149.600,271.187 150.959,271.037 152.621 C 270.873 154.424,270.448 156.203,269.981 157.033 C 269.552 157.798,269.200 158.768,269.200 159.189 C 269.200 159.609,269.020 160.064,268.800 160.200 C 268.580 160.336,268.401 160.752,268.403 161.124 C 268.407 161.882,265.177 168.525,264.704 168.733 C 264.537 168.807,264.400 169.172,264.400 169.545 C 264.400 169.918,264.040 170.483,263.600 170.800 C 263.160 171.117,262.800 171.697,262.800 172.088 C 262.800 172.480,262.620 172.800,262.400 172.800 C 262.180 172.800,262.000 173.088,262.000 173.440 C 262.000 173.791,261.460 174.583,260.800 175.200 C 260.140 175.817,259.600 176.537,259.600 176.800 C 259.600 177.063,259.060 177.783,258.400 178.400 C 257.740 179.017,257.200 179.723,257.200 179.969 C 257.200 180.216,256.210 181.407,255.000 182.617 C 253.790 183.827,252.800 184.967,252.800 185.151 C 252.800 185.643,249.258 189.200,248.768 189.200 C 248.537 189.200,247.471 190.100,246.400 191.200 C 245.329 192.300,244.242 193.200,243.986 193.200 C 243.730 193.200,243.017 193.740,242.400 194.400 C 241.783 195.060,241.031 195.600,240.728 195.600 C 240.425 195.600,239.917 195.960,239.600 196.400 C 239.283 196.840,238.769 197.200,238.459 197.200 C 238.148 197.200,237.603 197.524,237.247 197.920 C 236.891 198.317,235.933 198.951,235.117 199.331 C 234.301 199.711,233.526 200.196,233.394 200.409 C 233.098 200.889,228.976 202.800,228.237 202.800 C 227.941 202.800,227.474 203.070,227.200 203.400 C 226.926 203.730,226.285 204.000,225.775 204.000 C 225.265 204.000,224.736 204.180,224.600 204.400 C 224.464 204.620,223.924 204.800,223.400 204.800 C 222.876 204.800,222.336 204.980,222.200 205.200 C 222.064 205.420,221.524 205.600,221.000 205.600 C 220.476 205.600,219.936 205.780,219.800 206.000 C 219.664 206.220,219.124 206.400,218.600 206.400 C 218.076 206.400,217.536 206.580,217.400 206.800 C 217.264 207.020,216.353 207.200,215.376 207.200 C 214.399 207.200,213.600 207.380,213.600 207.600 C 213.600 207.837,212.133 208.000,210.000 208.000 C 207.867 208.000,206.400 208.163,206.400 208.400 C 206.400 208.648,204.200 208.800,200.600 208.800 C 197.000 208.800,194.800 208.952,194.800 209.200 C 194.800 209.420,194.260 209.600,193.600 209.600 C 192.940 209.600,192.400 209.780,192.400 210.000 C 192.400 210.220,191.680 210.400,190.800 210.400 C 189.920 210.400,189.200 210.580,189.200 210.800 C 189.200 211.020,188.855 211.200,188.433 211.200 C 188.012 211.200,187.607 211.342,187.533 211.515 C 187.460 211.688,186.405 212.312,185.188 212.901 C 183.971 213.491,182.441 214.537,181.788 215.227 C 181.135 215.916,180.192 216.639,179.693 216.833 C 178.127 217.442,177.790 219.137,178.986 220.385 C 179.544 220.967,180.000 221.637,180.000 221.873 C 180.000 222.109,180.279 222.534,180.620 222.816 C 180.961 223.099,181.582 224.082,182.000 225.000 C 182.418 225.918,183.039 226.901,183.380 227.184 C 183.721 227.466,184.000 228.115,184.000 228.625 C 184.000 229.135,184.180 229.664,184.400 229.800 C 184.620 229.936,184.800 230.487,184.800 231.024 C 184.800 231.561,184.963 232.000,185.161 232.000 C 185.360 232.000,185.623 232.855,185.746 233.900 C 186.220 237.937,186.495 239.414,186.841 239.780 C 187.307 240.273,187.309 245.085,186.844 245.373 C 186.472 245.603,186.106 247.301,185.740 250.500 C 185.621 251.545,185.360 252.400,185.161 252.400 C 184.963 252.400,184.800 252.894,184.800 253.497 C 184.800 254.904,181.495 261.583,180.194 262.806 C 179.647 263.319,179.200 263.929,179.200 264.161 C 179.200 264.728,173.138 270.800,172.571 270.800 C 172.325 270.800,171.797 271.161,171.397 271.603 C 170.513 272.581,168.543 273.600,167.539 273.600 C 167.132 273.600,166.800 273.780,166.800 274.000 C 166.800 274.220,166.442 274.400,166.003 274.400 C 165.565 274.400,164.982 274.760,164.707 275.200 C 164.351 275.770,163.774 276.000,162.704 276.000 C 161.877 276.000,161.200 276.180,161.200 276.400 C 161.200 276.620,160.300 276.800,159.200 276.800 C 158.100 276.800,157.200 276.980,157.200 277.200 C 157.200 277.449,154.933 277.600,151.200 277.600 C 147.467 277.600,145.200 277.449,145.200 277.200 C 145.200 276.980,144.300 276.800,143.200 276.800 C 142.100 276.800,141.200 276.620,141.200 276.400 C 141.200 276.180,140.523 276.000,139.696 276.000 C 138.626 276.000,138.049 275.770,137.693 275.200 C 137.418 274.760,136.835 274.400,136.397 274.400 C 135.958 274.400,135.600 274.220,135.600 274.000 C 135.600 273.780,135.268 273.600,134.861 273.600 C 133.857 273.600,131.887 272.581,131.003 271.603 C 130.603 271.161,130.083 270.800,129.847 270.800 C 129.274 270.800,123.200 264.742,123.200 264.171 C 123.200 263.925,122.840 263.398,122.400 263.000 C 121.960 262.602,121.600 262.056,121.600 261.787 C 121.600 261.518,121.338 261.081,121.018 260.815 C 120.261 260.187,117.600 254.800,117.600 253.896 C 117.600 253.513,117.437 253.200,117.239 253.200 C 116.640 253.200,116.318 249.385,116.309 242.200 C 116.300 235.277,116.599 232.000,117.242 232.000 C 117.439 232.000,117.600 231.686,117.600 231.303 C 117.600 230.404,121.066 223.409,121.823 222.781 C 122.140 222.518,122.400 222.095,122.400 221.843 C 122.400 221.299,129.247 214.400,129.786 214.400 C 129.990 214.400,130.661 213.916,131.278 213.325 L 132.400 212.250 132.400 156.158 C 132.400 98.860,132.399 98.800,131.246 98.800 C 130.878 98.800,130.317 98.440,130.000 98.000 C 129.683 97.560,129.103 97.200,128.712 97.200 C 128.267 97.200,128.000 96.900,128.000 96.400 C 128.000 95.945,127.733 95.600,127.382 95.600 C 126.582 95.600,124.800 93.818,124.800 93.018 C 124.800 92.667,124.455 92.400,124.000 92.400 C 123.500 92.400,123.200 92.133,123.200 91.688 C 123.200 91.297,122.840 90.717,122.400 90.400 C 121.960 90.083,121.600 89.543,121.600 89.200 C 121.600 88.857,121.240 88.317,120.800 88.000 C 120.360 87.683,120.000 87.103,120.000 86.712 C 120.000 86.320,119.820 86.000,119.600 86.000 C 119.380 86.000,119.200 85.578,119.200 85.062 C 119.200 84.546,118.840 83.798,118.400 83.400 C 117.960 83.002,117.600 82.265,117.600 81.762 C 117.600 81.259,117.420 80.736,117.200 80.600 C 116.980 80.464,116.800 79.564,116.800 78.600 C 116.800 77.636,116.620 76.736,116.400 76.600 C 116.159 76.451,116.000 73.670,116.000 69.600 C 116.000 65.530,116.159 62.749,116.400 62.600 C 116.620 62.464,116.800 61.744,116.800 61.000 C 116.800 60.256,116.980 59.536,117.200 59.400 C 117.420 59.264,117.600 58.850,117.600 58.479 C 117.600 57.479,121.221 50.367,121.854 50.124 C 122.154 50.009,122.400 49.646,122.400 49.317 C 122.400 48.573,129.818 41.200,130.567 41.200 C 130.868 41.200,131.209 40.954,131.324 40.654 C 131.567 40.021,138.679 36.400,139.679 36.400 C 140.050 36.400,140.464 36.220,140.600 36.000 C 140.736 35.780,141.456 35.600,142.200 35.600 C 142.944 35.600,143.664 35.420,143.800 35.200 C 143.950 34.957,146.863 34.800,151.200 34.800 C 155.537 34.800,158.450 34.957,158.600 35.200 M146.900 53.863 C 146.185 53.966,145.600 54.219,145.600 54.425 C 145.600 54.631,145.240 54.800,144.800 54.800 C 144.360 54.800,144.000 54.980,144.000 55.200 C 144.000 55.420,143.640 55.600,143.200 55.600 C 142.760 55.600,142.400 55.780,142.400 56.000 C 142.400 56.220,142.135 56.400,141.811 56.400 C 141.099 56.400,137.600 59.818,137.600 60.514 C 137.600 60.785,137.150 61.852,136.600 62.885 C 136.050 63.918,135.600 65.121,135.600 65.558 C 135.600 65.995,135.420 66.464,135.200 66.600 C 134.434 67.074,134.727 72.646,135.600 74.200 C 136.040 74.983,136.400 75.861,136.400 76.151 C 136.400 77.072,137.529 78.982,138.785 80.185 C 139.453 80.826,140.000 81.586,140.000 81.875 C 140.000 82.164,140.248 82.400,140.551 82.400 C 140.854 82.400,141.319 82.661,141.584 82.981 C 142.213 83.739,145.958 85.600,146.855 85.600 C 147.239 85.600,147.664 85.780,147.800 86.000 C 147.936 86.220,149.466 86.400,151.200 86.400 C 152.934 86.400,154.464 86.220,154.600 86.000 C 154.736 85.780,155.161 85.600,155.545 85.600 C 158.945 85.600,166.800 77.752,166.800 74.356 C 166.800 73.966,166.980 73.536,167.200 73.400 C 167.420 73.264,167.600 71.734,167.600 70.000 C 167.600 68.266,167.420 66.736,167.200 66.600 C 166.980 66.464,166.800 66.000,166.800 65.569 C 166.800 64.728,164.946 60.938,164.356 60.573 C 164.160 60.452,164.000 60.018,164.000 59.610 C 164.000 59.169,163.512 58.651,162.800 58.336 C 162.124 58.037,161.600 57.498,161.600 57.102 C 161.600 56.667,161.296 56.400,160.800 56.400 C 160.360 56.400,160.000 56.220,160.000 56.000 C 160.000 55.780,159.640 55.600,159.200 55.600 C 158.760 55.600,158.400 55.420,158.400 55.200 C 158.400 54.980,158.055 54.800,157.633 54.800 C 157.212 54.800,156.801 54.603,156.720 54.361 C 156.566 53.897,149.241 53.526,146.900 53.863 M253.400 88.000 C 253.264 88.220,252.353 88.400,251.376 88.400 C 250.399 88.400,249.600 88.580,249.600 88.800 C 249.600 89.020,249.240 89.200,248.800 89.200 C 248.360 89.200,248.000 89.380,248.000 89.600 C 248.000 89.820,247.680 90.000,247.288 90.000 C 246.897 90.000,246.317 90.360,246.000 90.800 C 245.683 91.240,245.187 91.600,244.898 91.600 C 244.169 91.600,241.600 94.238,241.600 94.987 C 241.600 95.324,241.420 95.600,241.200 95.600 C 240.980 95.600,240.800 95.920,240.800 96.312 C 240.800 96.703,240.440 97.283,240.000 97.600 C 239.560 97.917,239.200 98.576,239.200 99.065 C 239.200 99.553,239.020 100.064,238.800 100.200 C 238.339 100.485,238.242 109.198,238.700 109.203 C 239.059 109.207,240.000 111.144,240.000 111.880 C 240.000 112.166,240.180 112.400,240.400 112.400 C 240.620 112.400,240.800 112.631,240.800 112.913 C 240.800 114.666,248.058 120.000,250.444 120.000 C 251.054 120.000,251.664 120.180,251.800 120.400 C 251.936 120.620,253.286 120.800,254.800 120.800 C 256.314 120.800,257.664 120.620,257.800 120.400 C 257.936 120.180,258.667 120.000,259.424 120.000 C 260.181 120.000,260.800 119.820,260.800 119.600 C 260.800 119.380,261.049 119.200,261.354 119.200 C 263.163 119.200,269.199 113.658,269.200 111.996 C 269.200 111.426,269.546 110.777,270.000 110.493 C 270.548 110.151,270.800 109.560,270.800 108.620 C 270.800 107.865,270.980 107.136,271.200 107.000 C 271.420 106.864,271.600 105.773,271.600 104.576 C 271.600 103.379,271.420 102.400,271.200 102.400 C 270.980 102.400,270.800 101.895,270.800 101.277 C 270.800 98.724,265.488 90.800,263.777 90.800 C 263.528 90.800,262.998 90.440,262.600 90.000 C 262.202 89.560,261.454 89.200,260.938 89.200 C 260.422 89.200,260.000 89.020,260.000 88.800 C 260.000 88.580,259.100 88.400,258.000 88.400 C 256.900 88.400,256.000 88.220,256.000 88.000 C 256.000 87.780,255.471 87.600,254.824 87.600 C 254.177 87.600,253.536 87.780,253.400 88.000 M148.000 226.400 C 148.000 226.620,147.460 226.800,146.800 226.800 C 146.140 226.800,145.600 226.980,145.600 227.200 C 145.600 227.420,145.240 227.600,144.800 227.600 C 144.360 227.600,144.000 227.780,144.000 228.000 C 144.000 228.220,143.680 228.400,143.288 228.400 C 142.897 228.400,142.317 228.760,142.000 229.200 C 141.683 229.640,141.103 230.000,140.712 230.000 C 140.320 230.000,140.000 230.276,140.000 230.613 C 140.000 230.951,139.403 231.824,138.673 232.553 C 137.944 233.283,137.117 234.492,136.836 235.240 C 136.556 235.988,135.982 237.292,135.563 238.138 C 134.725 239.826,134.459 245.742,135.200 246.200 C 135.420 246.336,135.600 246.790,135.600 247.209 C 135.600 247.629,136.050 248.778,136.600 249.763 C 137.150 250.748,137.600 251.834,137.600 252.177 C 137.600 252.533,137.942 252.800,138.400 252.800 C 138.855 252.800,139.200 253.067,139.200 253.418 C 139.200 254.218,140.982 256.000,141.782 256.000 C 142.122 256.000,142.400 256.180,142.400 256.400 C 142.400 256.620,142.760 256.800,143.200 256.800 C 143.640 256.800,144.000 256.980,144.000 257.200 C 144.000 257.420,144.360 257.600,144.800 257.600 C 145.240 257.600,145.600 257.780,145.600 258.000 C 145.600 258.220,145.960 258.400,146.400 258.400 C 146.840 258.400,147.200 258.580,147.200 258.800 C 147.200 259.037,148.667 259.200,150.800 259.200 C 152.933 259.200,154.400 259.037,154.400 258.800 C 154.400 258.580,154.940 258.400,155.600 258.400 C 156.260 258.400,156.800 258.220,156.800 258.000 C 156.800 257.780,157.160 257.600,157.600 257.600 C 158.040 257.600,158.400 257.420,158.400 257.200 C 158.400 256.980,158.760 256.800,159.200 256.800 C 159.640 256.800,160.000 256.620,160.000 256.400 C 160.000 256.180,160.283 256.000,160.629 256.000 C 161.437 256.000,162.400 255.037,162.400 254.229 C 162.400 253.867,162.739 253.600,163.200 253.600 C 163.722 253.600,164.000 253.333,164.000 252.833 C 164.000 252.412,164.153 252.007,164.339 251.933 C 164.885 251.719,166.800 248.043,166.800 247.209 C 166.800 246.790,166.980 246.336,167.200 246.200 C 167.420 246.064,167.600 244.624,167.600 243.000 C 167.600 241.376,167.420 239.936,167.200 239.800 C 166.980 239.664,166.800 239.046,166.800 238.427 C 166.800 237.339,164.974 233.539,164.320 233.267 C 164.144 233.193,164.000 232.788,164.000 232.367 C 164.000 231.935,163.724 231.600,163.369 231.600 C 163.021 231.600,162.046 230.880,161.200 230.000 C 160.354 229.120,159.379 228.400,159.031 228.400 C 158.684 228.400,158.400 228.220,158.400 228.000 C 158.400 227.780,158.040 227.600,157.600 227.600 C 157.160 227.600,156.800 227.420,156.800 227.200 C 156.800 226.980,156.260 226.800,155.600 226.800 C 154.940 226.800,154.400 226.620,154.400 226.400 C 154.400 226.167,153.067 226.000,151.200 226.000 C 149.333 226.000,148.000 226.167,148.000 226.400 "
              stroke="none" fill="#34b47c" fill-rule="evenodd"></path>
        <path id="path2" d="" stroke="none" fill="#ccd8100" fill-rule="evenodd"></path>
        <path id="path3"
              d="M142.400 35.493 C 141.630 35.583,140.829 35.824,140.620 36.029 C 140.411 36.233,139.871 36.406,139.420 36.413 C 138.969 36.420,138.251 36.690,137.824 37.013 C 137.146 37.525,137.134 37.600,137.724 37.600 C 138.096 37.600,138.400 37.420,138.400 37.200 C 138.400 36.980,138.839 36.800,139.376 36.800 C 139.913 36.800,140.464 36.620,140.600 36.400 C 140.736 36.180,141.456 36.000,142.200 36.000 C 142.944 36.000,143.664 35.820,143.800 35.600 C 143.936 35.380,143.992 35.229,143.924 35.264 C 143.856 35.299,143.170 35.402,142.400 35.493 M158.657 35.693 C 158.762 35.862,159.456 36.000,160.200 36.000 C 160.944 36.000,161.664 36.180,161.800 36.400 C 161.936 36.620,162.487 36.800,163.024 36.800 C 163.561 36.800,164.000 36.980,164.000 37.200 C 164.000 37.420,164.304 37.600,164.676 37.600 C 165.266 37.600,165.254 37.525,164.576 37.013 C 164.149 36.690,163.406 36.420,162.924 36.413 C 162.442 36.406,161.948 36.239,161.826 36.042 C 161.705 35.845,160.899 35.617,160.036 35.535 C 159.173 35.453,158.553 35.524,158.657 35.693 M170.800 41.000 C 171.074 41.330,171.681 41.575,172.149 41.546 C 172.964 41.493,172.962 41.484,172.100 41.318 C 171.605 41.222,171.200 40.977,171.200 40.772 C 171.200 40.567,170.998 40.400,170.751 40.400 C 170.441 40.400,170.456 40.585,170.800 41.000 M127.262 43.858 C 126.306 44.848,125.597 45.730,125.686 45.819 C 125.775 45.909,126.731 45.086,127.809 43.991 C 128.888 42.896,129.597 42.013,129.385 42.029 C 129.173 42.045,128.218 42.868,127.262 43.858 M174.591 43.991 C 175.669 45.086,176.625 45.908,176.714 45.819 C 176.918 45.616,173.330 42.000,172.926 42.000 C 172.763 42.000,173.512 42.896,174.591 43.991 M124.060 47.080 C 123.543 47.615,123.197 48.130,123.292 48.225 C 123.386 48.319,123.885 47.948,124.400 47.400 C 124.915 46.852,125.261 46.337,125.168 46.255 C 125.076 46.174,124.577 46.545,124.060 47.080 M177.200 46.333 C 177.200 46.536,177.490 46.943,177.845 47.237 C 178.199 47.531,178.638 48.138,178.819 48.586 C 179.105 49.291,179.153 49.304,179.175 48.682 C 179.189 48.287,178.750 47.514,178.200 46.964 C 177.650 46.414,177.200 46.130,177.200 46.333 M161.632 57.100 C 161.610 57.705,161.830 57.998,162.300 57.994 C 162.732 57.990,162.831 57.875,162.560 57.694 C 162.318 57.532,162.017 57.130,161.892 56.800 C 161.739 56.399,161.653 56.499,161.632 57.100 M251.401 69.099 C 249.642 69.175,248.031 69.409,247.821 69.619 C 247.612 69.828,247.037 70.000,246.544 70.000 C 246.051 70.000,245.536 70.180,245.400 70.400 C 245.264 70.620,244.724 70.800,244.200 70.800 C 243.676 70.800,243.136 70.980,243.000 71.200 C 242.864 71.420,242.324 71.600,241.800 71.600 C 241.276 71.600,240.736 71.780,240.600 72.000 C 240.464 72.220,239.941 72.400,239.438 72.400 C 238.935 72.400,238.198 72.760,237.800 73.200 C 237.402 73.640,236.856 74.000,236.587 74.000 C 236.318 74.000,235.878 74.265,235.609 74.589 C 235.183 75.103,235.274 75.102,236.318 74.581 C 236.977 74.252,237.737 73.717,238.007 73.392 C 238.277 73.066,238.915 72.800,239.425 72.800 C 239.935 72.800,240.464 72.620,240.600 72.400 C 240.736 72.180,241.276 72.000,241.800 72.000 C 242.324 72.000,242.864 71.820,243.000 71.600 C 243.136 71.380,243.676 71.200,244.200 71.200 C 244.724 71.200,245.264 71.020,245.400 70.800 C 245.536 70.580,246.076 70.400,246.600 70.400 C 247.124 70.400,247.664 70.220,247.800 70.000 C 247.936 69.780,249.567 69.600,251.424 69.600 C 253.408 69.600,254.800 69.435,254.800 69.200 C 254.800 68.980,254.755 68.836,254.700 68.880 C 254.645 68.925,253.161 69.023,251.401 69.099 M257.861 69.300 C 257.963 69.465,259.207 69.600,260.624 69.600 C 262.075 69.600,263.200 69.775,263.200 70.000 C 263.200 70.220,263.695 70.386,264.300 70.368 C 264.905 70.351,265.130 70.248,264.800 70.139 C 264.470 70.030,263.840 69.782,263.400 69.587 C 262.395 69.143,257.608 68.894,257.861 69.300 M266.100 71.076 C 266.485 71.176,267.115 71.176,267.500 71.076 C 267.885 70.975,267.570 70.893,266.800 70.893 C 266.030 70.893,265.715 70.975,266.100 71.076 M270.458 72.682 C 271.041 72.772,271.833 73.195,272.220 73.623 C 272.607 74.050,273.138 74.400,273.400 74.400 C 273.662 74.400,274.202 74.760,274.600 75.200 C 274.998 75.640,275.525 76.000,275.771 76.000 C 276.334 76.000,282.800 82.470,282.800 83.034 C 282.800 83.263,283.385 83.979,284.100 84.625 L 285.400 85.800 284.300 84.578 C 283.695 83.906,283.200 83.182,283.200 82.970 C 283.200 82.440,276.290 75.600,275.754 75.600 C 275.518 75.600,274.998 75.240,274.600 74.800 C 274.202 74.360,273.716 74.000,273.521 74.000 C 273.326 74.000,272.780 73.640,272.308 73.200 C 271.836 72.760,270.988 72.427,270.425 72.460 L 269.400 72.520 270.458 72.682 M119.246 84.239 C 119.192 85.225,120.165 87.307,121.008 88.007 C 121.334 88.277,121.600 88.724,121.600 89.000 C 121.600 89.276,121.889 89.742,122.242 90.035 C 122.595 90.327,123.040 90.980,123.232 91.484 C 123.423 91.988,123.855 92.400,124.190 92.400 C 124.526 92.400,124.800 92.636,124.800 92.925 C 124.800 93.571,126.865 95.600,127.522 95.600 C 127.785 95.600,128.000 95.874,128.000 96.210 C 128.000 96.545,128.433 96.984,128.961 97.185 C 129.490 97.386,130.033 97.730,130.169 97.950 C 130.305 98.170,130.970 98.626,131.648 98.964 C 132.698 99.488,132.808 99.491,132.391 98.989 C 132.122 98.665,131.682 98.400,131.413 98.400 C 131.144 98.400,130.598 98.040,130.200 97.600 C 129.802 97.160,129.234 96.800,128.938 96.800 C 128.642 96.800,128.400 96.526,128.400 96.190 C 128.400 95.855,127.995 95.425,127.500 95.236 C 126.494 94.851,125.449 93.759,125.073 92.700 C 124.937 92.315,124.549 92.000,124.213 92.000 C 123.876 92.000,123.600 91.758,123.600 91.462 C 123.600 91.166,123.240 90.598,122.800 90.200 C 122.360 89.802,122.000 89.256,122.000 88.987 C 122.000 88.718,121.727 88.271,121.393 87.994 C 120.749 87.460,119.775 85.534,119.474 84.200 C 119.300 83.434,119.291 83.435,119.246 84.239 M182.815 84.961 C 182.614 85.490,182.258 86.041,182.024 86.185 C 181.789 86.330,181.254 87.203,180.833 88.124 C 180.413 89.046,179.603 90.236,179.034 90.770 C 178.465 91.303,178.000 91.939,178.000 92.183 C 178.000 92.748,173.918 96.800,173.349 96.800 C 173.115 96.800,172.598 97.160,172.200 97.600 C 171.802 98.040,171.265 98.400,171.008 98.400 C 170.750 98.400,170.103 98.895,169.570 99.500 L 168.600 100.600 169.626 99.700 C 170.190 99.205,170.837 98.800,171.064 98.800 C 171.291 98.800,171.802 98.440,172.200 98.000 C 172.598 97.560,173.116 97.200,173.350 97.200 C 173.919 97.200,178.400 92.747,178.400 92.182 C 178.400 91.939,178.862 91.306,179.426 90.776 C 179.990 90.246,180.740 89.179,181.092 88.406 C 181.444 87.633,182.035 86.640,182.406 86.200 C 183.114 85.360,183.715 84.000,183.378 84.000 C 183.269 84.000,183.016 84.433,182.815 84.961 M145.445 85.672 C 145.556 85.853,146.087 86.000,146.624 86.000 C 147.161 86.000,147.600 86.180,147.600 86.400 C 147.600 86.637,149.067 86.800,151.200 86.800 C 153.333 86.800,154.800 86.637,154.800 86.400 C 154.800 86.180,155.239 86.000,155.776 86.000 C 156.313 86.000,156.844 85.853,156.955 85.672 C 157.067 85.492,156.625 85.423,155.974 85.518 C 155.323 85.614,154.692 85.851,154.571 86.046 C 154.451 86.241,152.934 86.400,151.200 86.400 C 149.466 86.400,147.949 86.241,147.829 86.046 C 147.708 85.851,147.077 85.614,146.426 85.518 C 145.775 85.423,145.333 85.492,145.445 85.672 M224.480 85.680 C 224.216 85.944,224.000 86.456,224.000 86.819 C 224.000 87.683,222.941 89.785,222.192 90.407 C 221.866 90.677,221.600 91.315,221.600 91.825 C 221.600 92.335,221.420 92.864,221.200 93.000 C 220.980 93.136,220.800 93.831,220.800 94.544 C 220.800 95.257,220.608 96.032,220.374 96.266 C 220.140 96.500,220.019 97.481,220.104 98.446 L 220.260 100.200 220.330 98.324 C 220.369 97.292,220.580 96.336,220.800 96.200 C 221.020 96.064,221.200 95.344,221.200 94.600 C 221.200 93.856,221.380 93.136,221.600 93.000 C 221.820 92.864,222.000 92.335,222.000 91.825 C 222.000 91.315,222.266 90.677,222.592 90.407 C 223.341 89.785,224.400 87.683,224.400 86.819 C 224.400 86.456,224.616 85.944,224.880 85.680 C 225.144 85.416,225.270 85.200,225.160 85.200 C 225.050 85.200,224.744 85.416,224.480 85.680 M246.986 89.581 C 246.538 89.762,245.931 90.201,245.637 90.555 C 245.343 90.910,244.891 91.200,244.632 91.200 C 243.983 91.200,241.481 93.941,240.797 95.400 C 240.488 96.060,239.957 96.957,239.617 97.393 C 239.042 98.132,239.048 98.149,239.707 97.638 C 240.096 97.336,240.710 96.440,241.072 95.645 C 241.816 94.007,243.925 91.600,244.616 91.600 C 244.869 91.600,245.402 91.240,245.800 90.800 C 246.198 90.360,246.755 90.000,247.038 90.000 C 247.321 90.000,247.664 89.820,247.800 89.600 C 248.084 89.140,248.074 89.140,246.986 89.581 M269.079 96.700 C 269.579 98.079,270.400 99.066,270.400 98.289 C 270.400 97.910,270.220 97.600,270.000 97.600 C 269.780 97.600,269.600 97.240,269.600 96.800 C 269.600 96.360,269.426 96.000,269.213 96.000 C 268.999 96.000,268.939 96.315,269.079 96.700 M289.400 104.238 C 289.400 107.187,289.535 109.600,289.700 109.600 C 289.865 109.600,290.000 107.271,290.000 104.424 C 290.000 101.577,289.865 99.164,289.700 99.062 C 289.535 98.960,289.400 101.289,289.400 104.238 M270.909 100.800 C 270.909 101.790,270.987 102.195,271.082 101.700 C 271.178 101.205,271.178 100.395,271.082 99.900 C 270.987 99.405,270.909 99.810,270.909 100.800 M219.285 104.676 C 219.235 107.325,219.363 109.254,219.600 109.400 C 219.820 109.536,220.000 110.256,220.000 111.000 C 220.000 111.744,220.180 112.464,220.400 112.600 C 220.620 112.736,220.800 113.431,220.800 114.144 C 220.800 114.857,220.965 115.611,221.166 115.820 C 221.368 116.029,221.613 116.650,221.712 117.200 C 221.862 118.038,221.900 117.990,221.946 116.900 C 221.975 116.185,221.820 115.600,221.600 115.600 C 221.380 115.600,221.200 114.981,221.200 114.224 C 221.200 113.467,221.020 112.736,220.800 112.600 C 220.580 112.464,220.400 111.769,220.400 111.056 C 220.400 110.343,220.227 109.587,220.014 109.374 C 219.802 109.162,219.571 107.011,219.499 104.594 L 219.370 100.200 219.285 104.676 M271.674 104.476 C 271.633 105.728,271.420 106.864,271.200 107.000 C 270.980 107.136,270.800 107.839,270.800 108.562 C 270.800 109.368,270.491 110.156,270.000 110.600 C 269.560 110.998,269.200 111.697,269.200 112.153 C 269.200 112.638,267.998 114.228,266.300 115.991 L 263.400 119.000 266.500 116.010 C 268.452 114.128,269.600 112.706,269.600 112.172 C 269.600 111.706,269.960 110.998,270.400 110.600 C 270.877 110.168,271.200 109.368,271.200 108.618 C 271.200 107.926,271.390 107.170,271.623 106.937 C 271.857 106.703,271.979 105.550,271.897 104.357 L 271.748 102.200 271.674 104.476 M261.454 119.402 C 260.824 119.731,259.825 120.000,259.234 120.000 C 258.643 120.000,257.989 120.171,257.780 120.380 C 257.570 120.590,256.049 120.824,254.400 120.901 L 251.400 121.041 254.476 121.121 C 256.187 121.165,257.663 121.022,257.800 120.800 C 257.936 120.580,258.549 120.400,259.162 120.400 C 260.184 120.400,262.800 119.372,262.800 118.971 C 262.800 118.719,262.708 118.749,261.454 119.402 M249.105 120.283 C 249.602 120.379,250.322 120.375,250.705 120.275 C 251.087 120.175,250.680 120.096,249.800 120.101 C 248.920 120.105,248.607 120.187,249.105 120.283 M224.015 121.100 C 224.007 121.595,224.180 122.000,224.400 122.000 C 224.620 122.000,224.800 122.320,224.800 122.712 C 224.800 123.103,225.160 123.683,225.600 124.000 C 226.040 124.317,226.400 124.771,226.400 125.009 C 226.400 125.454,229.268 128.549,230.633 129.578 C 231.055 129.895,230.365 129.080,229.100 127.766 C 227.835 126.452,226.800 125.179,226.800 124.937 C 226.800 124.696,226.522 124.267,226.183 123.985 C 225.843 123.704,225.219 122.737,224.797 121.837 C 224.208 120.582,224.026 120.410,224.015 121.100 M283.875 123.522 C 283.284 124.139,282.800 124.822,282.800 125.041 C 282.800 125.259,282.080 126.141,281.200 127.000 C 280.320 127.859,279.600 128.796,279.600 129.081 C 279.600 129.367,279.367 129.600,279.081 129.600 C 278.796 129.600,277.859 130.320,277.000 131.200 C 276.141 132.080,275.215 132.800,274.942 132.800 C 274.670 132.800,274.337 132.978,274.203 133.195 C 273.679 134.043,275.470 133.022,277.000 131.600 C 277.880 130.782,278.915 130.004,279.300 129.869 C 279.685 129.735,280.000 129.386,280.000 129.094 C 280.000 128.801,280.720 127.859,281.600 127.000 C 282.480 126.141,283.200 125.259,283.200 125.041 C 283.200 124.822,283.684 124.139,284.275 123.522 C 284.866 122.905,285.260 122.400,285.150 122.400 C 285.040 122.400,284.466 122.905,283.875 123.522 M236.486 139.276 C 236.439 142.068,236.239 144.452,236.042 144.574 C 235.845 144.695,235.617 145.501,235.535 146.364 C 235.453 147.227,235.524 147.847,235.693 147.743 C 235.862 147.638,236.000 146.969,236.000 146.256 C 236.000 145.543,236.186 144.774,236.413 144.547 C 236.667 144.293,236.777 142.221,236.699 139.167 L 236.573 134.200 236.486 139.276 M229.700 157.810 C 229.205 158.339,228.800 158.976,228.800 159.225 C 228.800 159.475,228.260 160.183,227.600 160.800 C 226.940 161.417,226.400 162.064,226.400 162.239 C 226.400 162.414,227.030 161.946,227.800 161.200 C 228.570 160.454,229.200 159.663,229.200 159.443 C 229.200 159.224,229.684 158.539,230.275 157.922 C 230.866 157.305,231.181 156.811,230.975 156.824 C 230.769 156.838,230.195 157.281,229.700 157.810 M215.000 170.000 C 214.340 170.408,213.310 170.755,212.712 170.771 C 212.114 170.787,210.994 171.154,210.224 171.587 C 209.112 172.211,207.890 172.400,204.311 172.501 L 199.800 172.629 204.288 172.714 C 208.135 172.788,208.979 172.686,210.200 172.000 C 210.983 171.560,212.038 171.200,212.544 171.200 C 213.050 171.200,214.350 170.751,215.432 170.202 C 216.514 169.653,217.130 169.216,216.800 169.231 C 216.470 169.246,215.660 169.592,215.000 170.000 M262.917 170.900 C 262.708 171.175,262.247 172.033,261.894 172.806 C 261.541 173.579,260.790 174.646,260.226 175.176 C 259.662 175.706,259.200 176.344,259.200 176.595 C 259.200 176.845,258.660 177.568,258.000 178.200 C 257.340 178.832,256.800 179.536,256.800 179.763 C 256.800 179.991,255.765 181.262,254.500 182.588 L 252.200 185.000 254.700 182.613 C 256.075 181.299,257.200 180.028,257.200 179.787 C 257.200 179.547,257.740 178.832,258.400 178.200 C 259.060 177.568,259.600 176.845,259.600 176.595 C 259.600 176.344,260.049 175.718,260.598 175.202 C 261.147 174.686,262.029 173.395,262.559 172.332 C 263.522 170.399,263.632 169.962,262.917 170.900 M189.000 173.600 C 188.864 173.820,187.908 174.030,186.876 174.067 C 185.026 174.134,185.022 174.137,186.573 174.296 C 187.438 174.384,188.518 174.265,188.973 174.029 C 189.428 173.794,192.140 173.551,195.000 173.488 L 200.200 173.374 194.724 173.287 C 191.407 173.234,189.150 173.358,189.000 173.600 M180.300 175.882 C 180.795 175.978,181.605 175.978,182.100 175.882 C 182.595 175.787,182.190 175.709,181.200 175.709 C 180.210 175.709,179.805 175.787,180.300 175.882 M176.600 176.800 C 176.464 177.020,176.003 177.200,175.576 177.200 C 175.149 177.200,174.799 177.335,174.797 177.500 C 174.793 177.901,172.819 178.800,171.944 178.800 C 171.561 178.800,171.146 178.963,171.023 179.163 C 170.666 179.741,172.400 179.225,175.000 177.981 C 176.320 177.349,177.940 176.762,178.600 176.676 C 179.679 176.536,179.651 176.514,178.324 176.460 C 177.512 176.427,176.736 176.580,176.600 176.800 M250.400 187.400 C 249.428 188.390,248.723 189.200,248.833 189.200 C 248.943 189.200,249.828 188.390,250.800 187.400 C 251.772 186.410,252.477 185.600,252.367 185.600 C 252.257 185.600,251.372 186.410,250.400 187.400 M246.000 191.000 C 245.028 191.990,244.035 192.800,243.792 192.800 C 243.549 192.800,242.832 193.340,242.200 194.000 C 241.568 194.660,240.836 195.200,240.574 195.200 C 240.312 195.200,239.857 195.490,239.563 195.845 C 239.269 196.199,238.662 196.638,238.214 196.819 C 237.627 197.057,237.578 197.156,238.038 197.175 C 238.389 197.189,239.002 196.840,239.400 196.400 C 239.798 195.960,240.332 195.600,240.587 195.600 C 240.842 195.600,241.568 195.060,242.200 194.400 C 242.832 193.740,243.548 193.200,243.790 193.200 C 244.032 193.200,245.117 192.300,246.200 191.200 C 247.283 190.100,248.079 189.200,247.968 189.200 C 247.857 189.200,246.972 190.010,246.000 191.000 M236.000 198.233 C 235.442 198.543,235.265 198.785,235.600 198.781 C 235.930 198.778,236.549 198.510,236.976 198.187 C 237.939 197.459,237.345 197.487,236.000 198.233 M215.800 206.678 C 214.920 206.757,213.840 206.995,213.400 207.206 C 212.960 207.418,211.160 207.647,209.400 207.715 L 206.200 207.839 209.676 207.920 C 211.654 207.965,213.259 207.828,213.400 207.600 C 213.536 207.380,214.436 207.200,215.400 207.200 C 216.364 207.200,217.264 207.020,217.400 206.800 C 217.536 206.580,217.592 206.430,217.524 206.467 C 217.456 206.504,216.680 206.599,215.800 206.678 M194.600 208.800 C 194.464 209.020,193.924 209.200,193.400 209.200 C 192.876 209.200,192.336 209.380,192.200 209.600 C 192.064 209.820,191.444 210.000,190.822 210.000 C 190.200 210.000,189.176 210.269,188.546 210.598 C 187.496 211.145,187.475 211.195,188.300 211.198 C 188.795 211.199,189.200 211.020,189.200 210.800 C 189.200 210.580,189.819 210.400,190.576 210.400 C 191.333 210.400,192.064 210.220,192.200 210.000 C 192.336 209.780,192.851 209.600,193.344 209.600 C 193.837 209.600,194.415 209.425,194.628 209.212 C 194.842 208.998,197.623 208.768,200.808 208.700 L 206.600 208.576 200.724 208.488 C 197.139 208.434,194.751 208.556,194.600 208.800 M182.484 213.815 C 181.834 214.553,182.020 214.550,183.454 213.802 C 184.368 213.326,184.438 213.208,183.800 213.218 C 183.360 213.225,182.768 213.494,182.484 213.815 M180.400 216.000 C 180.400 216.220,180.141 216.400,179.824 216.400 C 179.507 216.400,179.146 216.563,179.023 216.763 C 178.672 217.330,180.319 216.780,180.836 216.157 C 181.171 215.753,181.175 215.600,180.849 215.600 C 180.602 215.600,180.400 215.780,180.400 216.000 M123.678 220.119 C 122.975 220.845,122.400 221.632,122.400 221.870 C 122.400 222.108,122.134 222.523,121.809 222.792 C 121.484 223.062,120.733 224.299,120.141 225.541 C 119.548 226.784,118.993 227.935,118.908 228.100 C 118.823 228.265,118.844 228.400,118.956 228.400 C 119.068 228.400,119.706 227.254,120.375 225.853 C 121.043 224.452,121.862 223.080,122.195 222.804 C 122.528 222.528,122.800 222.108,122.800 221.870 C 122.800 221.632,123.375 220.845,124.078 220.119 C 124.782 219.394,125.267 218.800,125.157 218.800 C 125.047 218.800,124.382 219.394,123.678 220.119 M178.300 220.019 C 179.015 220.800,179.600 221.632,179.600 221.870 C 179.600 222.108,179.879 222.534,180.220 222.816 C 180.561 223.099,181.182 224.082,181.600 225.000 C 182.018 225.918,182.684 226.921,183.080 227.228 C 183.756 227.752,183.761 227.738,183.167 226.993 C 182.819 226.557,182.237 225.550,181.874 224.755 C 181.512 223.960,180.941 223.083,180.607 222.806 C 180.273 222.529,180.000 222.089,180.000 221.829 C 180.000 221.570,179.325 220.737,178.500 219.978 L 177.000 218.600 178.300 220.019 M147.800 226.000 C 147.664 226.220,147.239 226.400,146.855 226.400 C 145.958 226.400,142.213 228.261,141.584 229.019 C 141.319 229.339,140.848 229.600,140.538 229.600 C 140.229 229.600,139.865 229.915,139.730 230.300 C 139.596 230.685,138.836 231.720,138.043 232.600 L 136.600 234.200 138.300 232.619 C 139.235 231.749,140.000 230.804,140.000 230.519 C 140.000 230.233,140.248 230.000,140.551 230.000 C 140.854 230.000,141.319 229.739,141.584 229.419 C 142.213 228.661,145.958 226.800,146.855 226.800 C 147.239 226.800,147.664 226.620,147.800 226.400 C 147.936 226.180,149.466 226.000,151.200 226.000 C 152.934 226.000,154.464 226.180,154.600 226.400 C 154.736 226.620,155.166 226.800,155.556 226.800 C 156.730 226.800,160.016 228.653,161.620 230.220 C 162.449 231.029,163.368 231.595,163.663 231.477 C 164.063 231.318,164.042 231.255,163.578 231.232 C 163.237 231.214,162.344 230.567,161.594 229.794 C 160.167 228.322,156.742 226.400,155.545 226.400 C 155.161 226.400,154.736 226.220,154.600 226.000 C 154.464 225.780,152.934 225.600,151.200 225.600 C 149.466 225.600,147.936 225.780,147.800 226.000 M139.750 255.087 C 142.268 258.064,153.397 261.146,154.600 259.200 C 154.736 258.980,155.150 258.800,155.520 258.800 C 156.286 258.800,161.883 256.113,162.206 255.591 C 162.322 255.402,161.039 255.957,159.354 256.824 C 157.668 257.691,155.965 258.400,155.568 258.400 C 155.172 258.400,154.736 258.580,154.600 258.800 C 153.445 260.669,143.602 258.089,139.876 254.940 L 139.000 254.200 139.750 255.087 M118.909 257.100 C 118.995 257.265,119.362 258.050,119.725 258.845 C 120.088 259.640,120.659 260.517,120.993 260.794 C 121.327 261.071,121.600 261.518,121.600 261.787 C 121.600 262.056,121.960 262.602,122.400 263.000 C 122.840 263.398,123.200 263.931,123.200 264.184 C 123.200 264.436,123.875 265.263,124.700 266.022 L 126.200 267.400 124.900 265.981 C 124.185 265.200,123.600 264.373,123.600 264.143 C 123.600 263.913,123.240 263.398,122.800 263.000 C 122.360 262.602,122.000 262.056,122.000 261.787 C 122.000 261.518,121.721 261.066,121.380 260.784 C 121.039 260.501,120.405 259.489,119.970 258.535 C 119.536 257.581,119.084 256.800,118.966 256.800 C 118.849 256.800,118.823 256.935,118.909 257.100 M182.044 259.308 C 181.385 260.688,180.386 262.249,179.823 262.778 C 179.260 263.307,178.800 263.925,178.800 264.151 C 178.800 264.377,178.215 265.200,177.500 265.981 L 176.200 267.400 177.700 266.022 C 178.525 265.263,179.200 264.440,179.200 264.191 C 179.200 263.943,179.654 263.313,180.209 262.792 C 180.763 262.271,181.694 260.844,182.277 259.622 C 182.860 258.400,183.407 257.265,183.492 257.100 C 183.577 256.935,183.556 256.800,183.444 256.800 C 183.332 256.800,182.702 257.929,182.044 259.308 M133.423 273.237 C 133.546 273.437,133.969 273.600,134.362 273.600 C 135.274 273.600,137.368 274.639,138.007 275.408 C 138.277 275.734,139.095 276.000,139.825 276.000 C 140.555 276.000,141.264 276.180,141.400 276.400 C 141.536 276.620,142.436 276.800,143.400 276.800 C 144.364 276.800,145.264 276.980,145.400 277.200 C 145.546 277.436,147.930 277.600,151.200 277.600 C 154.470 277.600,156.854 277.436,157.000 277.200 C 157.136 276.980,158.036 276.800,159.000 276.800 C 159.964 276.800,160.864 276.620,161.000 276.400 C 161.136 276.180,161.845 276.000,162.575 276.000 C 163.305 276.000,164.129 275.727,164.406 275.393 C 164.940 274.749,166.866 273.775,168.200 273.474 C 168.966 273.300,168.965 273.291,168.161 273.246 C 167.175 273.192,165.093 274.165,164.393 275.008 C 164.123 275.334,163.305 275.600,162.575 275.600 C 161.845 275.600,161.136 275.780,161.000 276.000 C 160.864 276.220,159.964 276.400,159.000 276.400 C 158.036 276.400,157.136 276.580,157.000 276.800 C 156.854 277.036,154.470 277.200,151.200 277.200 C 147.930 277.200,145.546 277.036,145.400 276.800 C 145.264 276.580,144.364 276.400,143.400 276.400 C 142.436 276.400,141.536 276.220,141.400 276.000 C 141.264 275.780,140.555 275.600,139.825 275.600 C 139.095 275.600,138.271 275.327,137.994 274.993 C 137.169 273.998,132.874 272.349,133.423 273.237 "
              stroke="none" fill="#64d8c0" fill-rule="evenodd"></path>
        <path id="path4"
              d="M147.500 35.098 C 149.535 35.171,152.865 35.171,154.900 35.098 C 156.935 35.025,155.270 34.966,151.200 34.966 C 147.130 34.966,145.465 35.025,147.500 35.098 M149.500 53.493 C 150.435 53.577,151.965 53.577,152.900 53.493 C 153.835 53.409,153.070 53.340,151.200 53.340 C 149.330 53.340,148.565 53.409,149.500 53.493 M184.501 58.600 C 184.505 59.480,184.587 59.793,184.683 59.295 C 184.779 58.798,184.775 58.078,184.675 57.695 C 184.575 57.313,184.496 57.720,184.501 58.600 M116.893 60.800 C 116.893 61.570,116.975 61.885,117.076 61.500 C 117.176 61.115,117.176 60.485,117.076 60.100 C 116.975 59.715,116.893 60.030,116.893 60.800 M185.293 61.600 C 185.293 62.370,185.375 62.685,185.476 62.300 C 185.576 61.915,185.576 61.285,185.476 60.900 C 185.375 60.515,185.293 60.830,185.293 61.600 M116.165 69.600 C 116.165 73.450,116.225 75.025,116.298 73.100 C 116.371 71.175,116.371 68.025,116.298 66.100 C 116.225 64.175,116.165 65.750,116.165 69.600 M186.032 65.076 C 186.014 65.998,186.142 66.841,186.316 66.948 C 186.490 67.056,186.567 66.482,186.487 65.672 C 186.269 63.458,186.067 63.195,186.032 65.076 M135.246 65.276 C 135.221 65.868,135.020 66.464,134.800 66.600 C 134.575 66.739,134.435 68.280,134.479 70.124 L 134.559 73.400 134.684 70.400 C 134.753 68.750,135.005 67.019,135.244 66.553 C 135.483 66.086,135.592 65.366,135.486 64.953 C 135.348 64.415,135.280 64.507,135.246 65.276 M166.846 65.276 C 166.821 65.868,166.980 66.464,167.200 66.600 C 167.420 66.736,167.636 68.322,167.679 70.124 L 167.759 73.400 167.899 70.410 C 167.976 68.765,167.859 67.055,167.640 66.610 C 167.421 66.164,167.163 65.440,167.067 65.000 C 166.938 64.405,166.881 64.476,166.846 65.276 M186.928 70.000 C 186.928 71.430,187.001 72.015,187.089 71.300 C 187.178 70.585,187.178 69.415,187.089 68.700 C 187.001 67.985,186.928 68.570,186.928 70.000 M255.505 68.683 C 256.002 68.779,256.722 68.775,257.105 68.675 C 257.487 68.575,257.080 68.496,256.200 68.501 C 255.320 68.505,255.007 68.587,255.505 68.683 M186.101 74.200 C 186.105 75.080,186.187 75.393,186.283 74.895 C 186.379 74.398,186.375 73.678,186.275 73.295 C 186.175 72.913,186.096 73.320,186.101 74.200 M185.314 77.800 C 185.317 78.900,185.395 79.303,185.487 78.695 C 185.579 78.086,185.577 77.186,185.482 76.695 C 185.387 76.203,185.311 76.700,185.314 77.800 M116.914 78.600 C 116.917 79.700,116.995 80.103,117.087 79.495 C 117.179 78.886,117.177 77.986,117.082 77.495 C 116.987 77.003,116.911 77.500,116.914 78.600 M184.460 81.276 C 184.427 82.088,184.242 82.851,184.048 82.970 C 183.699 83.186,183.144 84.800,183.419 84.800 C 183.876 84.800,184.833 81.888,184.690 80.933 C 184.545 79.966,184.511 80.016,184.460 81.276 M117.654 81.638 C 117.621 82.271,117.951 82.973,118.500 83.438 C 119.393 84.194,119.395 84.194,118.736 83.400 C 118.372 82.960,117.991 82.150,117.891 81.600 L 117.709 80.600 117.654 81.638 M284.100 84.222 C 284.705 84.894,285.200 85.648,285.200 85.898 C 285.200 86.148,285.363 86.454,285.563 86.577 C 286.446 87.123,285.404 85.169,284.264 84.140 L 283.000 83.000 284.100 84.222 M132.400 155.920 L 132.600 212.600 132.701 156.221 C 132.757 125.213,132.667 99.707,132.501 99.541 C 132.336 99.376,132.290 124.746,132.400 155.920 M169.067 100.267 C 168.696 100.637,168.729 180.000,169.100 180.000 C 169.265 180.000,169.400 162.000,169.400 140.000 C 169.400 118.000,169.385 100.000,169.367 100.000 C 169.348 100.000,169.213 100.120,169.067 100.267 M234.046 150.076 C 234.021 150.668,233.842 151.251,233.648 151.370 C 233.299 151.586,232.744 153.200,233.019 153.200 C 233.411 153.200,234.444 150.355,234.280 149.724 C 234.155 149.239,234.077 149.355,234.046 150.076 M270.493 154.800 C 270.493 155.570,270.575 155.885,270.676 155.500 C 270.776 155.115,270.776 154.485,270.676 154.100 C 270.575 153.715,270.493 154.030,270.493 154.800 M218.751 167.440 C 218.174 167.745,217.454 168.311,217.151 168.697 C 216.642 169.347,216.657 169.355,217.358 168.800 C 217.776 168.470,218.766 167.891,219.558 167.514 C 220.351 167.136,220.730 166.840,220.400 166.856 C 220.070 166.872,219.328 167.135,218.751 167.440 M233.401 199.999 C 233.265 200.218,232.399 200.752,231.477 201.184 C 230.555 201.617,229.997 201.977,230.239 201.985 C 230.900 202.007,233.050 200.863,233.607 200.192 C 233.877 199.866,233.997 199.600,233.873 199.600 C 233.749 199.600,233.536 199.779,233.401 199.999 M116.780 233.490 C 116.671 234.419,116.733 235.027,116.920 234.840 C 117.106 234.654,117.196 233.894,117.119 233.151 C 116.983 231.833,116.975 231.842,116.780 233.490 M185.246 233.676 C 185.221 234.708,185.342 235.641,185.516 235.748 C 185.690 235.856,185.770 235.282,185.693 234.472 C 185.459 231.998,185.295 231.707,185.246 233.676 M116.164 242.200 C 116.163 245.940,116.223 247.524,116.297 245.720 C 116.371 243.915,116.372 240.855,116.298 238.920 C 116.225 236.984,116.164 238.460,116.164 242.200 M186.109 238.000 C 186.109 238.990,186.187 239.395,186.282 238.900 C 186.378 238.405,186.378 237.595,186.282 237.100 C 186.187 236.605,186.109 237.010,186.109 238.000 M166.893 238.400 C 166.893 239.170,166.975 239.485,167.076 239.100 C 167.176 238.715,167.176 238.085,167.076 237.700 C 166.975 237.315,166.893 237.630,166.893 238.400 M134.537 242.600 C 134.539 244.360,134.609 245.030,134.693 244.089 C 134.778 243.149,134.777 241.709,134.691 240.889 C 134.605 240.070,134.536 240.840,134.537 242.600 M186.931 242.600 C 186.933 244.140,187.005 244.721,187.092 243.891 C 187.179 243.061,187.177 241.801,187.089 241.091 C 187.000 240.381,186.929 241.060,186.931 242.600 M167.731 243.000 C 167.733 244.540,167.805 245.121,167.892 244.291 C 167.979 243.461,167.977 242.201,167.889 241.491 C 167.800 240.781,167.729 241.460,167.731 243.000 M186.093 246.800 C 186.093 247.570,186.175 247.885,186.276 247.500 C 186.376 247.115,186.376 246.485,186.276 246.100 C 186.175 245.715,186.093 246.030,186.093 246.800 M185.361 248.958 C 185.243 249.265,185.208 250.210,185.283 251.058 C 185.410 252.487,185.434 252.446,185.610 250.500 C 185.804 248.356,185.741 247.967,185.361 248.958 M116.793 251.319 L 116.985 253.400 117.118 251.646 C 117.191 250.681,117.105 249.744,116.926 249.565 C 116.747 249.385,116.687 250.175,116.793 251.319 M184.493 254.000 C 184.493 254.770,184.575 255.085,184.676 254.700 C 184.776 254.315,184.776 253.685,184.676 253.300 C 184.575 252.915,184.493 253.230,184.493 254.000 "
              stroke="none" fill="#68d87c" fill-rule="evenodd"></path>
    </g>
</svg>
